<svg xmlns="http://www.w3.org/2000/svg" data-name="Layer 1" width="748.83" height="557.2"><path d="M51.016 470.657c-3.6 0-7.207.171-10.73.516l-.512.05C16.41 473.6-.682 487.395.021 503.313l.136 2.877c.09 1.82.185 3.776.263 5.946.043 1.07 1.312 1.891 2.89 1.891h574.732c40.522-.283 80.896-.64 119.996-1.06a177.652 177.652 0 0 0 21.954-1.309c10.866-1.48 18.407-4.415 23.058-8.972h.002c5.783-5.65 5.965-12.765 5.615-20.804-.712-16.233-1.419-33.285-2.124-50.286-.622-14.984-1.242-29.927-1.862-44.234-.384-8.49-1.236-15.984-7.803-21.712-7.12-6.194-20.102-9.334-38.589-9.334l-.671.001c-57.936.238-115.342 23.171-142.846 57.068-3.167 3.903-6.118 8.082-8.972 12.124a158.916 158.916 0 0 1-13.78 17.664 66.949 66.949 0 0 1-9.104 8.169c-.223.177-.478.368-.749.548-.618.464-1.265.912-1.895 1.31a62.041 62.041 0 0 1-11.609 6.076l-.407.157c-.306.126-.638.252-.97.368a68.209 68.209 0 0 1-7.17 2.206c-10.484 2.66-22.406 3.298-35.432 1.893a151.752 151.752 0 0 1-35.23-8.264c-12.062-4.39-23.352-9.86-34.271-15.152-4.796-2.325-9.757-4.728-14.711-7.006-.931-.428-1.847-.847-2.777-1.266-6.05-2.715-11.537-4.957-16.77-6.855a146.281 146.281 0 0 0-39.965-8.521c-14.41-.908-27.107.805-37.732 5.079a60.65 60.65 0 0 0-8.535 4.233c-12.585 7.524-20.343 18.627-27.845 29.366-9.332 13.356-18.983 27.168-38.038 34.329-21.988 8.27-54.084 4.834-76.791-1.141-7.14-1.879-14.27-4.04-21.166-6.13q-4.177-1.268-8.361-2.517c-5.48-1.63-9.966-2.877-14.116-3.931l-1.313-.336c-.73-.183-1.46-.365-2.205-.54-4.929-1.19-9.518-2.128-14.038-2.865l-1.07-.18a173.417 173.417 0 0 0-6.115-.823l-.785-.09a109.238 109.238 0 0 0-11.834-.633Z" fill="#f2f2f2"/><path d="M118.055 513.952a1.19 1.19 0 0 1 1.187-1.195h510.294a1.19 1.19 0 0 1 0 2.381H119.242a1.19 1.19 0 0 1-1.187-1.186Z" fill="#cacaca"/><path d="M520.42 43.04a42.86 42.86 0 0 1-11.46 29.24c-.56.61-1.15 1.2-1.75 1.77a650.403 650.403 0 0 0-69.84-46.89c.3-.76.62-1.51.97-2.25a43.043 43.043 0 0 1 82.08 18.13Z" fill="#ff6584"/><path d="m555.33 130.64-.04.45q-42.466-2.925-84.92-5.86c-20.45-1.41-41.61-3.01-59.68-12.69-6.86-3.67-13.54-8.57-21.32-8.91-9.65-.43-18.07 6.32-24.69 13.36-39.13 41.68-50.46 105.41-94.36 142.02A1394.138 1394.138 0 0 1 369.18 61.7c7.04-11.65 15.39-24.09 28.46-27.89 12.47-3.63 25.23 1.67 36.71 8.47 2.46 1.46 4.86 2.99 7.18 4.51q26.534 17.37 52.2 36.07 31.515 22.935 61.6 47.78Z" fill="#f2f2f2"/><path d="M646.89 219.04a670.651 670.651 0 0 0-104.75-116.27q-16.966-14.91-34.93-28.72a650.403 650.403 0 0 0-69.84-46.89q-11.94-6.93-24.16-13.31c-6.33-3.29-13.07-6.3-20.37-5.83a27.102 27.102 0 0 0-14.07 5.41c-8.97 6.55-14.91 16.78-19.8 26.53-4.28 8.55-8.27 17.27-12.34 25.94-1.73 3.69-3.46 7.37-5.25 11.03q-9.36 19.23-19.16 38.25-12.63 24.51-25.99 48.65-28.066 50.745-59.23 99.66-45.81 71.895-98.02 139.43c-4.27 5.51-6.03 6.79-10.36 12.26-1 1.28-2.78-.52-1.79-1.79 36.11-45.64 67.55-88.76 99.25-137.58q35.85-55.215 67.76-112.88 10.244-18.495 20.06-37.22 15.884-30.315 30.67-61.2 3.9-8.13 7.72-16.32c8.09-17.33 19.87-43.1 42.62-42.75 6.69.1 12.9 2.81 18.76 5.81 5.97 3.07 11.83 6.33 17.68 9.64q3.51 1.98 6.99 4.02 13.784 8.01 27.16 16.69 22.32 14.475 43.46 30.68 10.034 7.695 19.77 15.74a673.547 673.547 0 0 1 109.09 114.31q5.744 7.635 11.25 15.44c.94 1.33-1.25 2.59-2.18 1.27ZM544.392 90.042c1.322-1.473 2.635-2.947 3.966-4.42 10.491-11.604 21.75-23.072 36.157-29.725a52.457 52.457 0 0 1 21.977-5.094c7.865.025 15.552 2.088 22.82 4.977 3.435 1.372 6.795 2.93 10.104 4.589 3.78 1.903 7.494 3.932 11.19 5.978q10.408 5.76 20.546 12.025 20.172 12.466 39.08 26.835 9.801 7.452 19.198 15.393 8.74 7.376 17.127 15.148c1.196 1.103 2.981-.682 1.785-1.785a405.311 405.311 0 0 0-4.454-4.084q-6.315-5.709-12.833-11.199-11.885-10.029-24.385-19.283-19.44-14.399-40.216-26.844-10.383-6.214-21.051-11.906a182.557 182.557 0 0 0-6.518-3.326 103.9 103.9 0 0 0-15.493-6.307 55.117 55.117 0 0 0-23.4-2.3 60.923 60.923 0 0 0-21.59 7.47c-14.147 7.907-25.118 20.133-35.796 32.065-1.078 1.212.7 3.006 1.786 1.793Z" fill="#e4e4e4"/><path d="m254.541 210.284-33.897-12.399-16.83-6.155c-5.482-2.005-10.95-4.288-16.617-5.723a26.214 26.214 0 0 0-15.04.191 34.663 34.663 0 0 0-11.73 7.272 95.195 95.195 0 0 0-9.621 10.275c-3.664 4.404-7.275 8.854-10.9 13.288q-22.45 27.456-44.607 55.15-22.156 27.693-44.016 55.622-21.913 27.997-43.525 56.228-2.647 3.459-5.29 6.92c-.973 1.276-3.168.019-2.181-1.274q21.77-28.515 43.845-56.797 22.13-28.35 44.564-56.458 22.434-28.108 45.172-55.973 5.664-6.941 11.348-13.868c3.196-3.895 6.356-7.832 9.861-11.458 6.435-6.655 14.474-12.536 24.097-12.695 5.658-.094 11.134 1.701 16.39 3.603 5.667 2.05 11.32 4.138 16.98 6.208l34.135 12.485 8.534 3.122c1.514.554.86 2.996-.671 2.436Z" fill="#e4e4e4"/><path d="M588.976 70.498c17.226-8.853 39.286-7.12 55.116 3.942a786.115 786.115 0 0 0-89.437 20.874c12.2-7.15 21.744-18.352 34.32-24.816ZM644.261 74.41l3.317 2.695a49.07 49.07 0 0 0-3.486-2.665c.056-.01.113-.021.17-.03ZM161.704 210.407c3.337-4.061 6.944-8.314 11.935-9.964l4.66.184A528.553 528.553 0 0 1 37.519 361.57l124.185-151.164Z" fill="#f2f2f2"/><path d="m511.208 438.943-28.217-12.449v-10.702l10.056-.056a7.47 7.47 0 0 0 7.044-5.108l7.065-21.193a7.47 7.47 0 0 0-7.086-9.83H482.99v-9.96h21.44a7.47 7.47 0 0 0 7.28-5.796l4.865-21.163a7.47 7.47 0 0 0-7.28-9.142h-26.305v-2.49a4.98 4.98 0 0 0-9.959 0v2.49H296.675v-2.49a4.98 4.98 0 0 0-9.959 0v2.49h-20.91a7.47 7.47 0 0 0-7.28 9.142l4.865 21.163a7.47 7.47 0 0 0 7.28 5.796h16.045v9.96h-11.684a7.47 7.47 0 0 0-7.11 9.76l7.21 22.376a7.47 7.47 0 0 0 7.152 5.179l4.432-.025v9.6l-22.823 12.448a7.47 7.47 0 0 0-7.469 7.47 7.47 7.47 0 0 0 7.47 7.469h22.822v54.774a4.98 4.98 0 0 0 9.96 0v-54.774h176.356v54.774a4.98 4.98 0 0 0 9.96 0v-54.774h28.216a7.47 7.47 0 0 0 7.47-7.47 7.47 7.47 0 0 0-7.47-7.469Zm-214.533-69.298h176.357v9.96H296.675Zm0 56.85v-9.656l176.357-.991v10.646Z" fill="#ccc"/><path d="m90.37 417.814 7.985-26.004a87.77 87.77 0 0 0-35.084-23.506c13.125 21.743.407 50.108 5.707 74.946a52.794 52.794 0 0 0 28.277 35.978l12.117 15.013a88.466 88.466 0 0 0 6.502-73.786 85.453 85.453 0 0 0-9.894-19.018c-7.2 8.465-15.61 16.377-15.61 16.377Z" fill="#f2f2f2"/><path d="m46.465 421.137-4.45-26.836A87.77 87.77 0 0 0 .13 388.909c21.444 13.608 22.71 44.667 38.532 64.535a52.794 52.794 0 0 0 41.354 19.59l17.541 8.034a88.466 88.466 0 0 0-27.087-68.942 85.452 85.452 0 0 0-17.338-12.609c-2.67 10.788-6.667 21.62-6.667 21.62ZM676.925 307.719l-17.466-20.855a87.77 87.77 0 0 1 23.186-35.296c-3.64 25.135 19.105 46.324 23.879 71.269a52.794 52.794 0 0 1-12.066 44.14l-5.327 18.544a88.466 88.466 0 0 1-34.677-65.454 85.452 85.452 0 0 1 1.723-21.369c9.925 5 20.748 9.02 20.748 9.02Z" fill="#f2f2f2"/><path d="m718.669 293.71-6.333-26.455a87.77 87.77 0 0 1 36.494-21.25c-14.467 20.873-3.56 49.982-10.412 74.437a52.794 52.794 0 0 1-30.485 34.127l-13.038 14.222a88.466 88.466 0 0 1-1.846-74.05 85.453 85.453 0 0 1 11.072-18.357c6.653 8.901 14.548 17.327 14.548 17.327Z" fill="#f2f2f2"/><path fill="#ffb6b6" d="m373.867 536.045-11.474 5.535-26.81-41.622 16.934-8.169 21.35 44.256z"/><path d="m375.16 368.523-10.197 15.386S304.329 424.062 306.86 439c.885 5.226 4.733 16.217 9.682 28.465 1.52 3.764 8.666 11.245 10.34 15.115 8.456 19.54 12.666 35.174 16.727 37.266 4.51 2.338 4.047.483 6.81 4.745l16-6s2.493-5.594 3.73-8.365-.703-4.149-.703-4.149-2.349 1.252-1.94-1.378.267-3.46-.704-4.15-4.725-7.735-4.725-7.735a69.822 69.822 0 0 1-8.194-16.234c-.893-2.521-.804-8.562-2-11-2.52-5.137-3.412-8.929-7.485-11.6 0 0 51.267-24.907 56.078-36.82s-.14-51.196-.14-51.196ZM379.95 542.09l-38.797 15.11-.191-.49a16.207 16.207 0 0 1 9.219-20.983l4.993-8.137 15.317.227 3.387-1.319Z" fill="#2f2e41"/><path fill="#ffb6b6" d="m470.462 475.448 18.747-1.419-2.336 49.454-12.703.961-3.708-48.996z"/><path d="M367.442 382.13c-4.31-18.982 7.837 37.616 20.436 48.198 4.955 4.16 25.693-.146 42.862 1.166a87.671 87.671 0 0 1 30.32 8.237c-2.739 4.99.127 12.44.66 19.136.972 12.217 1.95 23.452 1.95 23.452s-.009 7.984-.542 9.048-.269 1.863 1.326 3.994-1.067 2.128-1.067 2.128-1.068 2.128 1.326 3.994 8.073 7.3 8.073 7.3l15.237-1.352c.44-5.061 1.755-5.726 4.64-9.907 2.746-3.956 2.118-27.695.183-49.977-.131-1.51 1.975-6.261 1.833-7.751-1.43-14.951-5.642-25.314-7.499-30.908-1.281-3.86-7.435-7.188-15.752-9.993a112.72 112.72 0 0 0-3.95-1.247c-22.934-6.803-57.458-10.145-57.458-10.145l-18.877-16.79ZM472.462 521.73l3.45-1.145 11.648-9.948 9.036 3.08h.001a16.207 16.207 0 0 1 20.487 10.273l.166.5-39.515 13.12Z" fill="#2f2e41"/><path d="m384.839 272.832-11.34 8.635-13.676 4.203s-5.654 79.528-10.748 84.623-.5 5.231-1.524 11.849-3.512 20.184-3.512 20.184c34.387 18.202 64.033 18.69 87.845-2.61a5.931 5.931 0 0 0-3.236-6.694c-4.432-2.352 4.086-13.328.464-15.163s1.472-17.755 1.472-17.755l-3.342-33.215 2.64-5.31-6.443-32.489-11.18-4.083-4.466-10.76Z" fill="#6c63ff"/><circle cx="396.448" cy="245.596" r="22.431" fill="#ffb6b6"/><path d="M377.735 414.181a9.83 9.83 0 0 0-11.208-10.08l-15.981-31.064-8.904 15.82 16.541 27.073a9.884 9.884 0 0 0 19.552-1.749Z" fill="#ffb6b6"/><path d="m350.82 406.582-34.278-53.127.113-.245c.13-.28 7.892-17.044 15.413-32.4a880.392 880.392 0 0 1 3.429-6.928q.724-1.445 1.426-2.83c3.16-6.228 5.92-11.375 7.567-13.82a29.015 29.015 0 0 1 15.375-11.664l.158-.04.152.062a14.724 14.724 0 0 1 8.763 16.198 104.296 104.296 0 0 1-19.353 43.755l-5.557 7.325 19.311 41.985Z" fill="#6c63ff"/><path d="M440.087 426.391v1.427a3.152 3.152 0 0 1-3.152 3.152H332.113a3.152 3.152 0 0 1-3.152-3.152v-1.427a3.152 3.152 0 0 1 3.152-3.151h1.86a2.65 2.65 0 0 1-.1-.708v-53.5a2.645 2.645 0 0 1 2.642-2.644h96.017a2.645 2.645 0 0 1 2.643 2.643v53.5a2.498 2.498 0 0 1-.101.709h1.861a3.152 3.152 0 0 1 3.152 3.151Z" fill="#3f3d56"/><path d="M386.59 396.615a5.99 5.99 0 1 1 5.99-5.99 5.997 5.997 0 0 1-5.99 5.99Zm0-10.949a4.958 4.958 0 1 0 4.957 4.959 4.964 4.964 0 0 0-4.958-4.959Z" fill="#fff"/><circle cx="384.524" cy="388.559" r="5.474" fill="#fff"/><path d="M468.694 202.936a9.83 9.83 0 0 0 2.359 14.888l-7.146 34.196 16.879-6.683 4.197-31.448a9.884 9.884 0 0 0-16.29-10.953Z" fill="#ffb6b6"/><path d="m484.817 225.788-6.826 62.856-.242.119c-.199.098-8.846 4.34-19.46 9.39-1.791.852-1.535 4.544-3.406 5.426-1.29.608-4.694-1.597-5.996-.988-11.603 5.425-23.335 10.701-28.01 12.13a29.015 29.015 0 0 1-19.289-.62l-.149-.068-.078-.145a14.724 14.724 0 0 1 3.393-18.1 104.296 104.296 0 0 1 42.586-21.805l8.93-2.19 11.436-44.777Z" fill="#6c63ff"/><path d="m446.6 202.282 2.569 23.31a2.845 2.845 0 0 0 2.72 2.008h11.839a2.845 2.845 0 0 0 2.72-2.008l2.127-17.866a4.32 4.32 0 1 0 1.114-8.128 2.82 2.82 0 0 0-2.159-.998h-18.21a2.846 2.846 0 0 0-2.72 3.682Zm22.346 4.236 1.303-4.236a2.816 2.816 0 0 0 .044-1.506c.055-.003.108-.016.164-.016a3.085 3.085 0 0 1 0 6.17 3.046 3.046 0 0 1-1.51-.412Z" fill="#3f3d56"/><path d="M414.718 226.326c-1.845-5.367-11.028-9.09-25.914-9.607s-18.663 17.026-18.663 17.026c-9.938 8.062 10.612 29.645 11.606 28.868l-.447-4.055c-.74-6.717-3.885-11.958.115-18.958l3.84.044 14.883 2.862-5.873-5.17.166-.257a22.727 22.727 0 0 0 8.016 2.434c3.157.185 6.608-1.07 8.12-3.848a6.466 6.466 0 0 0 .725-2.46c4.256 1.7 6.203 6.948 6.203 6.948s-.933-8.46-2.777-13.827Z" fill="#2f2e41"/></svg>