<svg xmlns="http://www.w3.org/2000/svg" width="1080" height="1080" xml:space="preserve"><path style="stroke:none;stroke-width:1;stroke-dasharray:none;stroke-linecap:butt;stroke-dashoffset:0;stroke-linejoin:miter;stroke-miterlimit:4;fill:#e6e6e6;fill-rule:nonzero;opacity:1" vector-effect="non-scaling-stroke" transform="translate(-64.77 71.48)" d="M696.927 503.797a5.5 5.5 0 0 1 5.5 5.5v53.206h105.5a5.5 5.5 0 1 1 0 11h-105.5v184h-11V509.297a5.5 5.5 0 0 1 5.5-5.5Z"/><path style="stroke:none;stroke-width:1;stroke-dasharray:none;stroke-linecap:butt;stroke-dashoffset:0;stroke-linejoin:miter;stroke-miterlimit:4;fill:#3f3d56;fill-rule:nonzero;opacity:1" vector-effect="non-scaling-stroke" transform="translate(-64.77 71.5)" d="m403.333 756.253-19.833.548a13.812 13.812 0 0 1-8.485-2.38c-2.154-1.601-3.142-3.767-2.709-5.942l3.903-19.612c.735-3.7 5.27-6.498 10.78-6.65l10.952-.302c5.51-.152 10.192 2.39 11.13 6.044l4.98 19.368c.552 2.147-.315 4.364-2.377 6.083a13.812 13.812 0 0 1-8.341 2.843ZM523.963 755.693l-19.832.547a13.812 13.812 0 0 1-8.486-2.379c-2.154-1.602-3.142-3.767-2.709-5.942l3.903-19.613c.736-3.7 5.27-6.497 10.78-6.65l10.952-.302c5.51-.152 10.192 2.39 11.13 6.045l4.98 19.367c.552 2.148-.315 4.365-2.376 6.083a13.812 13.812 0 0 1-8.342 2.844Z"/><path style="stroke:none;stroke-width:1;stroke-dasharray:none;stroke-linecap:butt;stroke-dashoffset:0;stroke-linejoin:miter;stroke-miterlimit:4;fill:#3f3d56;fill-rule:nonzero;opacity:1" vector-effect="non-scaling-stroke" transform="translate(-64.75 71.48)" d="M334.467 589.188a4.331 4.331 0 0 1 1.595-8.307l225.468-6.226a4.33 4.33 0 0 1 4.449 4.208 4.336 4.336 0 0 1-4.21 4.449l-225.468 6.225c-.63.02-1.255-.1-1.834-.349Z"/><rect style="stroke:none;stroke-width:1;stroke-dasharray:none;stroke-linecap:butt;stroke-dashoffset:0;stroke-linejoin:miter;stroke-miterlimit:4;fill:#e6e6e6;fill-rule:nonzero;opacity:1" vector-effect="non-scaling-stroke" x="-32.235" y="-108.84" rx="0" ry="0" width="64.47" height="217.68" transform="translate(323.69 695.73)"/><path style="stroke:none;stroke-width:1;stroke-dasharray:none;stroke-linecap:butt;stroke-dashoffset:0;stroke-linejoin:miter;stroke-miterlimit:4;fill:#ccc;fill-rule:nonzero;opacity:1" vector-effect="non-scaling-stroke" d="M4.84-95.92-7.55-62.17l.01 153.76 15.09 4.33L4.84-95.92z" transform="translate(349.71 678.05)"/><path style="stroke:none;stroke-width:1;stroke-dasharray:none;stroke-linecap:butt;stroke-dashoffset:0;stroke-linejoin:miter;stroke-miterlimit:4;fill:#3f3d56;fill-rule:nonzero;opacity:1" vector-effect="non-scaling-stroke" transform="translate(-64.76 71.48)" d="M385.116 457.68c-12.058.343-21.257 21.21-21.036 29.353l.407 14.741 43.66-1.205-.408-14.742c-.228-8.142-10.565-28.47-22.623-28.146Z"/><path style="stroke:none;stroke-width:1;stroke-dasharray:none;stroke-linecap:butt;stroke-dashoffset:0;stroke-linejoin:miter;stroke-miterlimit:4;fill:#3f3d56;fill-rule:nonzero;opacity:1" vector-effect="non-scaling-stroke" transform="translate(-64.77 71.49)" d="M354.063 606.44a8.51 8.51 0 0 1-8.731-8.262l-.662-23.991a8.5 8.5 0 0 1 16.993-.47l.663 23.991a8.51 8.51 0 0 1-8.263 8.732Z"/><path style="stroke:none;stroke-width:1;stroke-dasharray:none;stroke-linecap:butt;stroke-dashoffset:0;stroke-linejoin:miter;stroke-miterlimit:4;fill:#3f3d56;fill-rule:nonzero;opacity:1" vector-effect="non-scaling-stroke" d="m-3.81-107.17-.31-15.86 4.16-.1.31 15.8 3.77 230.35-4.16.11" transform="translate(309.47 695.5)"/><path style="stroke:none;stroke-width:1;stroke-dasharray:none;stroke-linecap:butt;stroke-dashoffset:0;stroke-linejoin:miter;stroke-miterlimit:4;fill:#e6e6e6;fill-rule:nonzero;opacity:1" vector-effect="non-scaling-stroke" transform="translate(-64.77 71.49)" d="m425.067 553.92-74.739 2.064c-7.138-8.705-7.787-45.793 7.111-52.851l5.842-9.92 45.043-2.2 5.264 10.446c7.41 6.305 11.232 43.161 11.479 52.46Z"/><path style="stroke:none;stroke-width:1;stroke-dasharray:none;stroke-linecap:butt;stroke-dashoffset:0;stroke-linejoin:miter;stroke-miterlimit:4;fill:#6c63ff;fill-rule:nonzero;opacity:1" vector-effect="non-scaling-stroke" transform="translate(-64.77 71.49)" d="m396.936 536.132-18.9.522c-3.647.101-6.748-4.63-6.911-10.546-.163-5.915 2.672-10.811 6.319-10.912l18.9-.522c3.647-.1 6.748 4.631 6.911 10.547.163 5.915-2.672 10.81-6.319 10.911Z"/><path style="stroke:none;stroke-width:1;stroke-dasharray:none;stroke-linecap:butt;stroke-dashoffset:0;stroke-linejoin:miter;stroke-miterlimit:4;fill:#e6e6e6;fill-rule:nonzero;opacity:1" vector-effect="non-scaling-stroke" d="m22.88-44.79-38.96 27.53-6.8 62.05L22.57 29.6l.31-74.39z" transform="translate(272.69 759.39)"/><rect style="stroke:none;stroke-width:1;stroke-dasharray:none;stroke-linecap:butt;stroke-dashoffset:0;stroke-linejoin:miter;stroke-miterlimit:4;fill:#e6e6e6;fill-rule:nonzero;opacity:1" vector-effect="non-scaling-stroke" x="-32.235" y="-108.84" rx="0" ry="0" width="64.47" height="217.68" transform="translate(448.1 693.06)"/><path style="stroke:none;stroke-width:1;stroke-dasharray:none;stroke-linecap:butt;stroke-dashoffset:0;stroke-linejoin:miter;stroke-miterlimit:4;fill:#ccc;fill-rule:nonzero;opacity:1" vector-effect="non-scaling-stroke" d="M-8.62-95.92 4.64-62.51 8.62 91.2l-14.98 4.72-2.26-191.84z" transform="translate(423.04 678.77)"/><ellipse style="stroke:none;stroke-width:1;stroke-dasharray:none;stroke-linecap:butt;stroke-dashoffset:0;stroke-linejoin:miter;stroke-miterlimit:4;fill:#e6e6e6;fill-rule:nonzero;opacity:1" vector-effect="non-scaling-stroke" rx="8.447" ry="11.327" transform="translate(509.56 511.63)"/><path style="stroke:none;stroke-width:1;stroke-dasharray:none;stroke-linecap:butt;stroke-dashoffset:0;stroke-linejoin:miter;stroke-miterlimit:4;fill:#3f3d56;fill-rule:nonzero;opacity:1" vector-effect="non-scaling-stroke" transform="translate(-64.75 71.48)" d="M508.269 455.05c-12.058.343-21.257 21.21-21.036 29.353l.407 14.741 43.659-1.205-.407-14.742c-.229-8.143-10.566-28.47-22.623-28.146Z"/><path style="stroke:none;stroke-width:1;stroke-dasharray:none;stroke-linecap:butt;stroke-dashoffset:0;stroke-linejoin:miter;stroke-miterlimit:4;fill:#3f3d56;fill-rule:nonzero;opacity:1" vector-effect="non-scaling-stroke" d="m-3.81-107.17-.31-15.86 4.16-.1.31 15.8 3.77 230.35-4.16.11" transform="translate(459.8 700.46)"/><path style="stroke:none;stroke-width:1;stroke-dasharray:none;stroke-linecap:butt;stroke-dashoffset:0;stroke-linejoin:miter;stroke-miterlimit:4;fill:#e6e6e6;fill-rule:nonzero;opacity:1" vector-effect="non-scaling-stroke" transform="translate(-64.76 71.49)" d="m548.22 551.29-74.74 2.064c-1.302-7.877.383-44.633 7.112-52.852l5.842-9.92 45.043-2.199 5.264 10.445c13.298 1.084 17.95 37.204 11.478 52.462Z"/><path style="stroke:none;stroke-width:1;stroke-dasharray:none;stroke-linecap:butt;stroke-dashoffset:0;stroke-linejoin:miter;stroke-miterlimit:4;fill:#6c63ff;fill-rule:nonzero;opacity:1" vector-effect="non-scaling-stroke" transform="translate(-64.77 71.49)" d="m520.18 536.813-18.9.522c-3.647.1-6.768-5.374-6.957-12.202-.188-6.828 2.626-12.466 6.273-12.567l18.9-.522c3.647-.1 6.769 5.374 6.957 12.202.189 6.828-2.626 12.466-6.273 12.567Z"/><path style="stroke:none;stroke-width:1;stroke-dasharray:none;stroke-linecap:butt;stroke-dashoffset:0;stroke-linejoin:miter;stroke-miterlimit:4;fill:#e6e6e6;fill-rule:nonzero;opacity:1" vector-effect="non-scaling-stroke" d="m-19.28-45.78 37.67 29.27 3.96 62.29-44.7-17.24 3.07-74.32z" transform="translate(499.78 744.49)"/><path style="stroke:none;stroke-width:1;stroke-dasharray:none;stroke-linecap:butt;stroke-dashoffset:0;stroke-linejoin:miter;stroke-miterlimit:4;fill:#f2f2f2;fill-rule:nonzero;opacity:1" vector-effect="non-scaling-stroke" transform="translate(-64.76 71.49)" d="M534.754 338.68c-40.413 0-86.858-44.846-127.95-23.539-124.414 64.514-107.288-43.44-143.031-83.589l1.173-2.353c27.06 103.218 51.543 267.692 142.399 83.204 22.76-46.213 97.455 25.22 141.423 23.113l.077 2.83q-6.966.335-14.091.334ZM631.75 345.026c-32.215 24.4-96.315 16.691-116.207 58.487-60.228 126.545-111.754 30.148-164.488 19.723l-.486-2.584c52.79 4.378 109.415-2.415 163.751-19.648 49.105-15.571 92.915-38.735 126.692-66.962l1.77 2.21q-5.35 4.473-11.031 8.774Z"/><ellipse style="stroke:none;stroke-width:1;stroke-dasharray:none;stroke-linecap:butt;stroke-dashoffset:0;stroke-linejoin:miter;stroke-miterlimit:4;fill:#e6e6e6;fill-rule:nonzero;opacity:1" vector-effect="non-scaling-stroke" rx="8.447" ry="11.327" transform="translate(216.56 399.63)"/><ellipse style="stroke:none;stroke-width:1;stroke-dasharray:none;stroke-linecap:butt;stroke-dashoffset:0;stroke-linejoin:miter;stroke-miterlimit:4;fill:#e6e6e6;fill-rule:nonzero;opacity:1" vector-effect="non-scaling-stroke" rx="8.447" ry="11.327" transform="translate(478.56 307.63)"/><path style="stroke:none;stroke-width:1;stroke-dasharray:none;stroke-linecap:butt;stroke-dashoffset:0;stroke-linejoin:miter;stroke-miterlimit:4;fill:#e6e6e6;fill-rule:nonzero;opacity:1" vector-effect="non-scaling-stroke" transform="translate(-64.77 71.49)" d="M358.656 385.188c-3.862 2.573-7.815-3.551-3.878-6.01 3.861-2.573 7.814 3.551 3.878 6.01ZM501.656 184.188c-3.862 2.573-7.815-3.551-3.878-6.01 3.861-2.573 7.814 3.551 3.878 6.01Z"/><path style="stroke:none;stroke-width:1;stroke-dasharray:none;stroke-linecap:butt;stroke-dashoffset:0;stroke-linejoin:miter;stroke-miterlimit:4;fill:#e6e6e6;fill-rule:nonzero;opacity:1" vector-effect="non-scaling-stroke" d="M3.46-.1 1-.64l.54-2.46-1.64-.36L-.64-1l-2.46-.54L-3.46.1-1 .64l-.54 2.46 1.64.36L.64 1l2.46.54.36-1.64z" transform="translate(517.72 374.95)"/><circle style="stroke:none;stroke-width:1;stroke-dasharray:none;stroke-linecap:butt;stroke-dashoffset:0;stroke-linejoin:miter;stroke-miterlimit:4;fill:#ff6584;fill-rule:nonzero;opacity:1" vector-effect="non-scaling-stroke" r="10.702" transform="translate(295.95 281.78)"/><path style="stroke:none;stroke-width:1;stroke-dasharray:none;stroke-linecap:butt;stroke-dashoffset:0;stroke-linejoin:miter;stroke-miterlimit:4;fill:#3f3d56;fill-rule:nonzero;opacity:1" vector-effect="non-scaling-stroke" transform="translate(-64.76 71.49)" d="M439.001 196.75c-12.057.342-21.257 21.209-21.036 29.351l.407 14.742 43.66-1.206-.407-14.741c-.229-8.143-10.566-28.47-22.624-28.146Z"/><path style="stroke:none;stroke-width:1;stroke-dasharray:none;stroke-linecap:butt;stroke-dashoffset:0;stroke-linejoin:miter;stroke-miterlimit:4;fill:#3f3d56;fill-rule:nonzero;opacity:1" vector-effect="non-scaling-stroke" transform="translate(-64.77 71.49)" d="m464.998 754.968-19.832.548a13.812 13.812 0 0 1-8.486-2.38c-2.154-1.601-3.142-3.767-2.708-5.942l3.902-19.612c.736-3.7 5.27-6.498 10.78-6.65l10.953-.302c5.51-.152 10.192 2.39 11.13 6.044l4.98 19.368c.552 2.147-.315 4.364-2.377 6.083a13.812 13.812 0 0 1-8.342 2.843Z"/><rect style="stroke:none;stroke-width:1;stroke-dasharray:none;stroke-linecap:butt;stroke-dashoffset:0;stroke-linejoin:miter;stroke-miterlimit:4;fill:#e6e6e6;fill-rule:nonzero;opacity:1" vector-effect="non-scaling-stroke" x="-32.235" y="-220.01" rx="0" ry="0" width="64.47" height="440.02" transform="translate(382.92 582.9)"/><path style="stroke:none;stroke-width:1;stroke-dasharray:none;stroke-linecap:butt;stroke-dashoffset:0;stroke-linejoin:miter;stroke-miterlimit:4;fill:#3f3d56;fill-rule:nonzero;opacity:1" vector-effect="non-scaling-stroke" d="m-3.81-107.17-.31-15.86 4.16-.1.31 15.8 3.77 230.35-4.16.11" transform="translate(387.1 682.17)"/><path style="stroke:none;stroke-width:1;stroke-dasharray:none;stroke-linecap:butt;stroke-dashoffset:0;stroke-linejoin:miter;stroke-miterlimit:4;fill:#e6e6e6;fill-rule:nonzero;opacity:1" vector-effect="non-scaling-stroke" transform="translate(-64.76 71.49)" d="m486.53 330.85-87.325 2.412c-1.523-9.203.447-52.15 8.308-61.752l2.155-11.462 60.296-1.665 3.155 11.17c8.659 7.369 13.123 50.432 13.412 61.298Z"/><path style="stroke:none;stroke-width:1;stroke-dasharray:none;stroke-linecap:butt;stroke-dashoffset:0;stroke-linejoin:miter;stroke-miterlimit:4;fill:#e6e6e6;fill-rule:nonzero;opacity:1" vector-effect="non-scaling-stroke" transform="translate(-64.76 71.49)" d="m471.87 259.735-62.222 1.718c-2.297.064-4.194-1.142-4.236-2.693a1.952 1.952 0 0 1 .096-.658l9.665-29.776c.414-1.275 2.062-2.211 3.985-2.264l41.264-1.14c1.923-.053 3.62.791 4.103 2.042l11.293 29.196c.578 1.493-.756 3.047-2.98 3.471a6.08 6.08 0 0 1-.968.104Z"/><path style="stroke:none;stroke-width:1;stroke-dasharray:none;stroke-linecap:butt;stroke-dashoffset:0;stroke-linejoin:miter;stroke-miterlimit:4;fill:#3f3d56;fill-rule:nonzero;opacity:1" vector-effect="non-scaling-stroke" transform="translate(-64.76 71.49)" d="M415.786 501.486a7.626 7.626 0 0 1-1.581-.915 5.604 5.604 0 0 1-2.38-4.322l-2.26-81.878c-.093-3.389 3.225-6.24 7.397-6.356l55.704-1.538c4.173-.116 7.642 2.549 7.737 5.938l2.26 81.878a5.603 5.603 0 0 1-2.136 4.446 8.506 8.506 0 0 1-5.262 1.91l-55.702 1.538a8.92 8.92 0 0 1-3.777-.701Z"/><path style="stroke:none;stroke-width:1;stroke-dasharray:none;stroke-linecap:butt;stroke-dashoffset:0;stroke-linejoin:miter;stroke-miterlimit:4;fill:#6c63ff;fill-rule:nonzero;opacity:1" vector-effect="non-scaling-stroke" transform="translate(-64.76 71.49)" d="m451.438 254.466-18.9.522c-3.647.1-6.731-4.02-6.874-9.184-.142-5.165 2.71-9.45 6.357-9.55l18.9-.522c3.647-.1 6.73 4.02 6.873 9.184.143 5.165-2.709 9.45-6.356 9.55Z"/><path style="stroke:none;stroke-width:1;stroke-dasharray:none;stroke-linecap:butt;stroke-dashoffset:0;stroke-linejoin:miter;stroke-miterlimit:4;fill:#e6e6e6;fill-rule:nonzero;opacity:1" vector-effect="non-scaling-stroke" transform="translate(-64.77 71.48)" d="M898.194 740.087h-22V580.21c18.402-1.32 32.233-6.955 32.233-13.707 0-7.732-18.133-14-40.5-14-22.368 0-40.5 6.268-40.5 14 0 6.817 14.1 12.494 32.767 13.742v159.842h-22a8 8 0 0 0 0 16h60a8 8 0 0 0 0-16Z"/><path style="stroke:none;stroke-width:1;stroke-dasharray:none;stroke-linecap:butt;stroke-dashoffset:0;stroke-linejoin:miter;stroke-miterlimit:4;fill:#a0616a;fill-rule:nonzero;opacity:1" vector-effect="non-scaling-stroke" d="m20.52 10-7.23 7.87-33.81-24.12 10.66-11.62L20.52 10z" transform="translate(768.75 720.41)"/><path style="stroke:none;stroke-width:1;stroke-dasharray:none;stroke-linecap:butt;stroke-dashoffset:0;stroke-linejoin:miter;stroke-miterlimit:4;fill:#2f2e41;fill-rule:nonzero;opacity:1" vector-effect="non-scaling-stroke" transform="translate(-64.76 71.49)" d="M835.554 679.707a13.322 13.322 0 0 0 4.335 9.308l.319.296 9.477-10.329 13.82-15.064-10.202-9.366-1.842 2.012-.192.207-9.182 4.343-1.946.925-.333.156-.732 7.864v.008a13.283 13.283 0 0 0-3.522 9.64Z"/><path style="stroke:none;stroke-width:1;stroke-dasharray:none;stroke-linecap:butt;stroke-dashoffset:0;stroke-linejoin:miter;stroke-miterlimit:4;fill:#fee4c4;fill-rule:nonzero;opacity:1" vector-effect="non-scaling-stroke" d="M13.54 18.17 3.31 21.28l-16.85-37.97 15.1-4.59 11.98 39.45z" transform="translate(813.17 790.8)"/><path style="stroke:none;stroke-width:1;stroke-dasharray:none;stroke-linecap:butt;stroke-dashoffset:0;stroke-linejoin:miter;stroke-miterlimit:4;fill:#2f2e41;fill-rule:nonzero;opacity:1" vector-effect="non-scaling-stroke" transform="translate(-64.77 71.48)" d="m863.987 756.202.126.421 32.975-10.017-4.025-13.251-2.604.791-.274.082-12.26-1.125-.362-.03-4.639 6.4c-7.087 2.152-11.088 9.641-8.937 16.729Z"/><path style="stroke:none;stroke-width:1;stroke-dasharray:none;stroke-linecap:butt;stroke-dashoffset:0;stroke-linejoin:miter;stroke-miterlimit:4;fill:#fee4c4;fill-rule:nonzero;opacity:1" vector-effect="non-scaling-stroke" d="M13.54 18.17 3.31 21.28l-16.85-37.97 15.1-4.59 11.98 39.45z" transform="rotate(-28.4 1812.632 -1167.363)"/><path style="stroke:none;stroke-width:1;stroke-dasharray:none;stroke-linecap:butt;stroke-dashoffset:0;stroke-linejoin:miter;stroke-miterlimit:4;fill:#2f2e41;fill-rule:nonzero;opacity:1" vector-effect="non-scaling-stroke" transform="translate(-64.77 70.07)" d="M807.142 538.687s-65.294 63.042-24.016 82.556h12.758a84.503 84.503 0 0 1 12.612-25.108c1.205-1.577 5.72-1.257 6.975-2.794 7.657-9.387 15.958-17.448 21.691-17.128l-1.371 43.558-2.22 15.537c-1.165 8.032 31.727 78.161 31.727 78.161l20.674-8.125s-21.54-57.762-21.792-66.09l17.262-91.561Z"/><path style="stroke:none;stroke-width:1;stroke-dasharray:none;stroke-linecap:butt;stroke-dashoffset:0;stroke-linejoin:miter;stroke-miterlimit:4;fill:#6c63ff;fill-rule:nonzero;opacity:1" vector-effect="non-scaling-stroke" transform="translate(-64.76 71.49)" d="M801.698 541.796c.332.475.767.87 1.272 1.155a8.99 8.99 0 0 0 2.671.991c14.701 3.337 62.726 10.254 75.193 6.955 1.531-.4 2.53-.962 2.855-1.702 1.044-2.338.91-12.215.296-24.142-.11-2.234-2.574-4.654-2.722-6.992-.104-1.753 2.108-3.403 1.99-5.186-.814-12.06-1.865-24.349-2.567-32.117-.444-4.995-.748-8.117-.748-8.117l7.584-47.817-.355-.585-.4-.2-24.452-12.104-1.332-3.403a5.267 5.267 0 0 0-4.876-3.337L840 405.13a5.249 5.249 0 0 0-4.283 2.175l-4.366 6.044-28.854 18.497.11.34 13.54 41.203.067 3.211v.008l.503 25.821-1.398 3.5 1.575 5.741s-.725 6.71-4.609 11.697c-3.522 4.528-8.005 9.249-10.032 13.081v.007c-1.125 2.117-1.502 3.951-.555 5.342Z"/><path style="stroke:none;stroke-width:1;stroke-dasharray:none;stroke-linecap:butt;stroke-dashoffset:0;stroke-linejoin:miter;stroke-miterlimit:4;fill:#2f2e41;fill-rule:nonzero;opacity:1" vector-effect="non-scaling-stroke" transform="translate(-64.76 71.49)" d="m779.991 617.498 3.49 4.41s32.098 22.456 33.2 24.554l5.073 4.8 12.274-13.12-6.383-8a50.107 50.107 0 0 0-19.221-14.716l-9.783-8.679Z"/><path style="stroke:none;stroke-width:1;stroke-dasharray:none;stroke-linecap:butt;stroke-dashoffset:0;stroke-linejoin:miter;stroke-miterlimit:4;fill:#fee4c4;fill-rule:nonzero;opacity:1" vector-effect="non-scaling-stroke" transform="translate(-64.76 71.49)" d="m895.61 556.69-5.845-56.577-1.543-23.286 16.36-2.958s-.648 16.65 1.496 26.044c2.115 9.27.28 55.535.15 56.772a7.96 7.96 0 1 1-10.618.005Z"/><path style="stroke:none;stroke-width:1;stroke-dasharray:none;stroke-linecap:butt;stroke-dashoffset:0;stroke-linejoin:miter;stroke-miterlimit:4;fill:#6c63ff;fill-rule:nonzero;opacity:1" vector-effect="non-scaling-stroke" transform="translate(-64.76 71.5)" d="m876.128 471.006 4.558 9.752 1.59 3.396 4.284 22.432 2.138 2.272 1.843 7.332.865-.178 15.611-3.233 4.55-.94A8.65 8.65 0 0 0 910 501.015c-.31-.281-.57-.555-.562-.814.259-15.604-.696-44.096-9.315-55.823-2.738-3.721-4.38-7.428-6.77-10.017-.007-.008-.007-.015-.015-.015l-5.815-9.522-.355-.585-.4-.2Z"/><circle style="stroke:none;stroke-width:1;stroke-dasharray:none;stroke-linecap:butt;stroke-dashoffset:0;stroke-linejoin:miter;stroke-miterlimit:4;fill:#fee4c4;fill-rule:nonzero;opacity:1" vector-effect="non-scaling-stroke" r="21.431" transform="translate(784.55 451.18)"/><path style="stroke:none;stroke-width:1;stroke-dasharray:none;stroke-linecap:butt;stroke-dashoffset:0;stroke-linejoin:miter;stroke-miterlimit:4;fill:#2f2e41;fill-rule:nonzero;opacity:1" vector-effect="non-scaling-stroke" transform="translate(-62.35 68.24)" d="M874.76 375.079c.628-3.601 1.118-8.27-.68-12.42-1.52-3.493-5.32-6.768-9.545-6.326a4.399 4.399 0 0 0-1.373-4.4 11.555 11.555 0 0 0-4.688-2.204c-3.971-1.167-8.085-2.377-12.332-2.4-4.766-.025-8.99 1.608-11.58 4.487l-.063.093-.777 1.854c-.21.503-.63.89-1.148 1.057-.52.172-1.09.102-1.554-.19a1.695 1.695 0 0 0-2.58 1.366l-.042.79-1.112-.443a1.69 1.69 0 0 0-2.299 1.85l.148.942a1.811 1.811 0 0 0-1.38.31 1.655 1.655 0 0 0-.589 1.86 15.398 15.398 0 0 0 4.284 6.4c.874.79 1.853 1.456 2.908 1.978q.33.166.685.314a76.252 76.252 0 0 0 26.963 6.108 15.654 15.654 0 0 0-1.674 5.372 5.875 5.875 0 0 0 2.514 5.542 7.4 7.4 0 0 0 1.204.551c.399.147.785.326 1.155.535a3.598 3.598 0 0 1-.149 6.243s1.595 1.947 1.85 1.914a4.982 4.982 0 0 0 2.625-1.553c4.642-4.507 7.747-11.107 9.23-19.63Z"/><path style="stroke:none;stroke-width:1;stroke-dasharray:none;stroke-linecap:butt;stroke-dashoffset:0;stroke-linejoin:miter;stroke-miterlimit:4;fill:#f2f2f2;fill-rule:nonzero;opacity:1" vector-effect="non-scaling-stroke" transform="translate(-64.76 71.49)" d="m968.583 706.352.932-20.943a67.64 67.64 0 0 1 31.55-7.987c-15.153 12.389-13.26 36.27-23.533 52.929a40.686 40.686 0 0 1-29.835 18.801l-12.68 7.764a68.176 68.176 0 0 1 14.37-55.246 65.854 65.854 0 0 1 12.102-11.245c3.037 8.008 7.094 15.927 7.094 15.927Z"/><path style="stroke:none;stroke-width:1;stroke-dasharray:none;stroke-linecap:butt;stroke-dashoffset:0;stroke-linejoin:miter;stroke-miterlimit:4;fill:#ccc;fill-rule:nonzero;opacity:1" vector-effect="non-scaling-stroke" transform="translate(-64.76 71.49)" d="M1032.342 757.913a1.549 1.549 0 0 1-1.553 1.553h-852.05a1.553 1.553 0 0 1 0-3.107h852.05a1.549 1.549 0 0 1 1.553 1.554Z"/><path style="stroke:none;stroke-width:1;stroke-dasharray:none;stroke-linecap:butt;stroke-dashoffset:0;stroke-linejoin:miter;stroke-miterlimit:4;fill:#3f3d56;fill-rule:nonzero;opacity:1" vector-effect="non-scaling-stroke" transform="translate(-64.77 71.49)" d="M543.683 601.125a8.51 8.51 0 0 1-8.73-8.262l-.663-23.99a8.5 8.5 0 0 1 16.993-.47l.663 23.99a8.51 8.51 0 0 1-8.263 8.732Z"/><path style="stroke:none;stroke-width:1;stroke-dasharray:none;stroke-linecap:butt;stroke-dashoffset:0;stroke-linejoin:miter;stroke-miterlimit:4;fill:#ccc;fill-rule:nonzero;opacity:1" vector-effect="non-scaling-stroke" transform="translate(-64.47 52.25)" d="M918.54 688.807q-19.368 0-42.457-1.464c-79.613-5.055-182.737-22.633-290.376-49.492-107.637-26.86-206.93-59.794-279.585-92.734-35.393-16.047-62.556-31.237-80.735-45.148-19.247-14.727-27.666-27.564-25.024-38.153 5.148-20.629 50.73-25.142 88.064-25.295l.012 3c-51.268.21-81.513 8.387-85.165 23.022-4.652 18.64 33.286 47.74 104.087 79.841 72.495 32.868 171.605 65.74 279.073 92.557 107.467 26.816 210.401 44.363 289.84 49.408 77.578 4.928 124.743-2.937 129.394-21.578 3.862-15.477-21.598-38.275-71.69-64.198l1.38-2.664c36.397 18.836 78.645 45.851 73.221 67.588-2.642 10.59-16.105 17.965-40.015 21.923-13.63 2.256-30.37 3.387-50.024 3.387Z"/><path style="stroke:none;stroke-width:1;stroke-dasharray:none;stroke-linecap:butt;stroke-dashoffset:0;stroke-linejoin:miter;stroke-miterlimit:4;fill:#ccc;fill-rule:nonzero;opacity:1" vector-effect="non-scaling-stroke" transform="translate(-64.77 71.48)" d="M233.244 669.154c-10.246 0-16.907-2.546-19.855-7.607-5.814-9.98 3.923-27.493 28.94-52.051l2.102 2.14c-23.239 22.813-33.343 40.002-28.45 48.4 3.095 5.313 12.308 7.218 26.648 5.505 14.235-1.7 33.1-6.765 56.072-15.055 47.29-17.067 106.622-45.856 167.065-81.064 60.44-35.207 114.75-72.617 152.926-105.335 7.333-6.286 13.988-12.333 19.78-17.972a196.96 196.96 0 0 0 20.975-23.377c8.563-11.627 11.453-20.581 8.358-25.894-5.17-8.875-26.888-8.04-61.156 2.353l-.87-2.872c36.766-11.149 58.507-11.483 64.618-.991 3.798 6.518.926 16.337-8.534 29.183a199.923 199.923 0 0 1-21.299 23.748c-5.837 5.683-12.539 11.772-19.92 18.1-38.31 32.833-92.776 70.353-153.369 105.648-60.593 35.297-120.1 64.168-167.556 81.295-23.185 8.368-42.273 13.486-56.735 15.211a82.698 82.698 0 0 1-9.74.635Z"/><path style="stroke:none;stroke-width:1;stroke-dasharray:none;stroke-linecap:butt;stroke-dashoffset:0;stroke-linejoin:miter;stroke-miterlimit:4;fill:#e6e6e6;fill-rule:nonzero;opacity:1" vector-effect="non-scaling-stroke" transform="translate(-64.76 71.49)" d="M780.787 545.982c-7.414-.148-47.24-1.291-53.77-1.01-.37-1.293-12.75 14.573-13.051 14.67a1.808 1.808 0 0 0 .604 2.909c.728.442 64.932-.746 65.71-.591a1.786 1.786 0 0 0 1.594-1.038l.429-.962c.045-1.644.583-10.048.1-11.484a1.778 1.778 0 0 0-1.616-2.494Z"/><path style="stroke:none;stroke-width:1;stroke-dasharray:none;stroke-linecap:butt;stroke-dashoffset:0;stroke-linejoin:miter;stroke-miterlimit:4;fill:#000;fill-rule:nonzero;opacity:.17" vector-effect="non-scaling-stroke" transform="translate(-64.77 71.5)" d="M782.303 559.959c-.377.905-.859 2.043-2.023 2.001l-65.032.73a1.794 1.794 0 0 1-1.565-2.633Z"/><path style="stroke:none;stroke-width:1;stroke-dasharray:none;stroke-linecap:butt;stroke-dashoffset:0;stroke-linejoin:miter;stroke-miterlimit:4;fill:#e6e6e6;fill-rule:nonzero;opacity:1" vector-effect="non-scaling-stroke" transform="translate(-64.76 71.48)" d="M727.32 544.777c-.7-1.21-18.086-87.238-19.537-87.957l-11.87-14.521-1.061-.798c-1.475-.81-5.014-.263-4.696 1.99 2.789 13.37 20.726 89.52 21.119 101.391l2.16 15.124a1.863 1.863 0 0 0 2.299 1.53 3.583 3.583 0 0 0 2.877-2.079c.162-.534 9.522-14.37 8.71-14.68Z"/><path style="stroke:none;stroke-width:1;stroke-dasharray:none;stroke-linecap:butt;stroke-dashoffset:0;stroke-linejoin:miter;stroke-miterlimit:4;fill:#000;fill-rule:nonzero;opacity:.17" vector-effect="non-scaling-stroke" transform="translate(-64.76 71.49)" d="m695.91 442.3 22.703 117.16c-.759 1.922-4.312 3.268-5.14.747-.014-.003-23.29-116.643-23.314-116.713-.248-2.807 4.39-2.896 5.751-1.195Z"/><path style="stroke:none;stroke-width:1;stroke-dasharray:none;stroke-linecap:butt;stroke-dashoffset:0;stroke-linejoin:miter;stroke-miterlimit:4;fill:#6c63ff;fill-rule:nonzero;opacity:1" vector-effect="non-scaling-stroke" d="M-12.24-41.39-.71-25.32l12.95 61.46-6.02 5.25-18.46-82.78z" transform="translate(644.07 559.97)"/><path style="stroke:none;stroke-width:1;stroke-dasharray:none;stroke-linecap:butt;stroke-dashoffset:0;stroke-linejoin:miter;stroke-miterlimit:4;fill:#2f2e41;fill-rule:nonzero;opacity:1" vector-effect="non-scaling-stroke" transform="translate(-64.76 71.48)" d="m773.344 554.27 3.19.13c.05-.935.204-1.86.46-2.76.48-2.28.91-4.99-1.08-4.98-1.35-.13-1.81 1.58-2.05 3.44a26.318 26.318 0 0 1-.52 4.17ZM755.044 549.98l2.15.08 1.04.04c-.02-1.14.51-3.49-.78-4.07a1.6 1.6 0 0 0-.65-.13c-1.21-.07-1.57.85-1.68 1.91-.07.64-.04 1.32-.06 1.85 0 .11-.01.22-.02.32Z"/><path style="stroke:none;stroke-width:1;stroke-dasharray:none;stroke-linecap:butt;stroke-dashoffset:0;stroke-linejoin:miter;stroke-miterlimit:4;fill:#2f2e41;fill-rule:nonzero;opacity:1" vector-effect="non-scaling-stroke" transform="translate(-64.77 71.49)" d="m748.674 549.72 2.16.09 1.03.04c-.02-1.31.67-4.17-1.43-4.21-1.94-.11-1.69 2.36-1.74 3.76 0 .11-.01.22-.02.32Z"/><path style="stroke:none;stroke-width:1;stroke-dasharray:none;stroke-linecap:butt;stroke-dashoffset:0;stroke-linejoin:miter;stroke-miterlimit:4;fill:#2f2e41;fill-rule:nonzero;opacity:1" vector-effect="non-scaling-stroke" transform="translate(-64.77 71.48)" d="m742.304 549.47 2.15.08 1.04.04c-.02-1.3.67-4.16-1.43-4.2-1.94-.12-1.69 2.35-1.74 3.76 0 .11-.01.22-.02.32Z"/><path style="stroke:none;stroke-width:1;stroke-dasharray:none;stroke-linecap:butt;stroke-dashoffset:0;stroke-linejoin:miter;stroke-miterlimit:4;fill:#2f2e41;fill-rule:nonzero;opacity:1" vector-effect="non-scaling-stroke" transform="translate(-64.77 71.49)" d="m735.934 549.21 2.16.09 1.03.04c-.02-1.31.67-4.16-1.43-4.21-1.94-.11-1.69 2.36-1.74 3.76 0 .11-.01.22-.02.32Z"/><path style="stroke:none;stroke-width:1;stroke-dasharray:none;stroke-linecap:butt;stroke-dashoffset:0;stroke-linejoin:miter;stroke-miterlimit:4;fill:#2f2e41;fill-rule:nonzero;opacity:1" vector-effect="non-scaling-stroke" transform="translate(-64.76 71.48)" d="m729.564 548.96 2.15.08 1.04.04c-.02-1.2.56-3.71-.98-4.14h-.01a1.464 1.464 0 0 0-.44-.06c-.181-.017-.364 0-.54.05h-.01c-1.34.35-1.15 2.45-1.19 3.71 0 .11-.01.22-.02.32Z"/><path style="stroke:none;stroke-width:1;stroke-dasharray:none;stroke-linecap:butt;stroke-dashoffset:0;stroke-linejoin:miter;stroke-miterlimit:4;fill:#2f2e41;fill-rule:nonzero;opacity:1" vector-effect="non-scaling-stroke" transform="translate(-64.76 71.49)" d="m766.914 548.28 3.19.13c0-.12 0-.25.01-.4.08-.761.093-1.528.04-2.29-.11-.84-.47-1.5-1.48-1.52-1.03-.06-1.44.6-1.6 1.45a3.116 3.116 0 0 0-.08.44v.01c-.08.78-.03 1.62-.08 2.18Z"/><path style="stroke:none;stroke-width:1;stroke-dasharray:none;stroke-linecap:butt;stroke-dashoffset:0;stroke-linejoin:miter;stroke-miterlimit:4;fill:#2f2e41;fill-rule:nonzero;opacity:1" vector-effect="non-scaling-stroke" transform="translate(-64.77 71.48)" d="m760.544 548.02 3.19.13c.068-.859.088-1.72.06-2.58-.09-.88-.44-1.6-1.49-1.62-1.06-.07-1.47.65-1.63 1.54-.15.86-.07 1.89-.13 2.53Z"/><path style="stroke:none;stroke-width:1;stroke-dasharray:none;stroke-linecap:butt;stroke-dashoffset:0;stroke-linejoin:miter;stroke-miterlimit:4;fill:#2f2e41;fill-rule:nonzero;opacity:1" vector-effect="non-scaling-stroke" transform="translate(-64.77 71.49)" d="m754.174 547.77.95.04 2.24.09c-.01-.48.08-1.18.09-1.87a4.233 4.233 0 0 0-.02-.62c-.08-.93-.41-1.7-1.5-1.72-1.11-.06-1.5.71-1.64 1.65-.14.84-.06 1.81-.12 2.43Z"/><path style="stroke:none;stroke-width:1;stroke-dasharray:none;stroke-linecap:butt;stroke-dashoffset:0;stroke-linejoin:miter;stroke-miterlimit:4;fill:#2f2e41;fill-rule:nonzero;opacity:1" vector-effect="non-scaling-stroke" transform="translate(-64.77 71.48)" d="m766.974 554.02 3.19.12c-.01-1.3.67-4.16-1.43-4.2-2.1-.13-1.64 2.77-1.76 4.08Z"/><path style="stroke:none;stroke-width:1;stroke-dasharray:none;stroke-linecap:butt;stroke-dashoffset:0;stroke-linejoin:miter;stroke-miterlimit:4;fill:#2f2e41;fill-rule:nonzero;opacity:1" vector-effect="non-scaling-stroke" transform="translate(-64.77 71.49)" d="m760.604 553.76 3.19.13c-.01-1.31.67-4.17-1.43-4.21-2.1-.12-1.64 2.78-1.76 4.08Z"/><path style="stroke:none;stroke-width:1;stroke-dasharray:none;stroke-linecap:butt;stroke-dashoffset:0;stroke-linejoin:miter;stroke-miterlimit:4;fill:#2f2e41;fill-rule:nonzero;opacity:1" vector-effect="non-scaling-stroke" transform="translate(-64.77 71.48)" d="m754.234 553.51 3.19.12c-.01-.93.34-2.65-.23-3.57a1.32 1.32 0 0 0-1.2-.63 1.406 1.406 0 0 0-.93.23c-1.02.67-.73 2.79-.83 3.85Z"/><path style="stroke:none;stroke-width:1;stroke-dasharray:none;stroke-linecap:butt;stroke-dashoffset:0;stroke-linejoin:miter;stroke-miterlimit:4;fill:#2f2e41;fill-rule:nonzero;opacity:1" vector-effect="non-scaling-stroke" transform="translate(-64.77 71.49)" d="m747.864 553.25 3.19.13c-.01-.93.33-2.64-.22-3.57a1.323 1.323 0 0 0-1.21-.64 1.39 1.39 0 0 0-.93.23c-1.02.69-.73 2.8-.83 3.85Z"/><path style="stroke:none;stroke-width:1;stroke-dasharray:none;stroke-linecap:butt;stroke-dashoffset:0;stroke-linejoin:miter;stroke-miterlimit:4;fill:#2f2e41;fill-rule:nonzero;opacity:1" vector-effect="non-scaling-stroke" transform="translate(-64.77 71.48)" d="m741.494 553 3.19.12c-.01-.93.34-2.65-.23-3.57a1.32 1.32 0 0 0-1.2-.63 1.405 1.405 0 0 0-.93.23c-1.02.67-.73 2.79-.83 3.85Z"/><path style="stroke:none;stroke-width:1;stroke-dasharray:none;stroke-linecap:butt;stroke-dashoffset:0;stroke-linejoin:miter;stroke-miterlimit:4;fill:#2f2e41;fill-rule:nonzero;opacity:1" vector-effect="non-scaling-stroke" transform="translate(-64.77 71.49)" d="m735.124 552.74 3.19.13c-.01-.93.33-2.64-.22-3.57a1.312 1.312 0 0 0-1.21-.64 1.39 1.39 0 0 0-.93.23c-1.02.69-.73 2.8-.83 3.85Z"/><path style="stroke:none;stroke-width:1;stroke-dasharray:none;stroke-linecap:butt;stroke-dashoffset:0;stroke-linejoin:miter;stroke-miterlimit:4;fill:#2f2e41;fill-rule:nonzero;opacity:1" vector-effect="non-scaling-stroke" transform="translate(-64.77 71.48)" d="m728.754 552.49 3.19.12c-.01-.93.33-2.64-.23-3.57a1.308 1.308 0 0 0-1.2-.63 1.405 1.405 0 0 0-.93.23c-1.02.68-.73 2.79-.83 3.85Z"/><path style="stroke:none;stroke-width:1;stroke-dasharray:none;stroke-linecap:butt;stroke-dashoffset:0;stroke-linejoin:miter;stroke-miterlimit:4;fill:#fee4c4;fill-rule:nonzero;opacity:1" vector-effect="non-scaling-stroke" transform="translate(-64.76 71.49)" d="m764.78 543.245 24.313-51.42 9.193-21.45-14.448-8.227s-4.92 15.92-10.064 24.068c-5.075 8.04-18.718 52.286-19.006 53.497a7.96 7.96 0 1 0 10.012 3.532Z"/><path style="stroke:none;stroke-width:1;stroke-dasharray:none;stroke-linecap:butt;stroke-dashoffset:0;stroke-linejoin:miter;stroke-miterlimit:4;fill:#6c63ff;fill-rule:nonzero;opacity:1" vector-effect="non-scaling-stroke" transform="translate(-64.76 71.48)" d="m764.632 495.638 18.388 11.093 4.17-6.303 2.777-1.433 11.495-19.737 10.162-10.354 13.427-42.919-17.47 2.621-.023.008c-3.112 1.65-5.896 4.601-9.712 7.202-12.027 8.196-22.396 34.752-27.336 49.559-.081.243-.414.412-.8.578a8.653 8.653 0 0 0-5.078 9.685Z"/></svg>