<?xml version="1.0" encoding="UTF-8" standalone="no" ?>
<!DOCTYPE svg PUBLIC "-//W3C//DTD SVG 1.1//EN" "http://www.w3.org/Graphics/SVG/1.1/DTD/svg11.dtd">
<svg xmlns="http://www.w3.org/2000/svg" xmlns:xlink="http://www.w3.org/1999/xlink" version="1.1" width="1080" height="1080" viewBox="0 0 1080 1080" xml:space="preserve">
<desc>Created with Fabric.js 5.2.4</desc>
<defs>
</defs>
<g transform="matrix(1 0 0 1 540 540)" id="643d6dbc-adec-46b5-abbd-9778814560f6"  >
<rect style="stroke: none; stroke-width: 1; stroke-dasharray: none; stroke-linecap: butt; stroke-dashoffset: 0; stroke-linejoin: miter; stroke-miterlimit: 4; fill: rgb(255,255,255); fill-rule: nonzero; opacity: 1; visibility: hidden;" vector-effect="non-scaling-stroke"  x="-540" y="-540" rx="0" ry="0" width="1080" height="1080" />
</g>
<g transform="matrix(1 0 0 1 540 540)" id="49adecc3-db09-4706-a69d-48444153acf6"  >
</g>
<g transform="matrix(1 0 0 1 687.66 702.13)"  >
<path style="stroke: none; stroke-width: 1; stroke-dasharray: none; stroke-linecap: butt; stroke-dashoffset: 0; stroke-linejoin: miter; stroke-miterlimit: 4; fill: rgb(230,230,230); fill-rule: nonzero; opacity: 1;" vector-effect="non-scaling-stroke"  transform=" translate(-752.43, -630.65)" d="M 696.92661 503.79661 C 699.9641526927661 503.7966099998192 702.4265768631706 506.2590073074146 702.42661 509.29654999999997 L 702.42661 562.5027299999999 L 807.92661 562.5027299999999 C 810.9641761240694 562.5027299999999 813.42661 564.9651638759306 813.42661 568.0027299999999 C 813.42661 571.0402961240693 810.9641761240694 573.5027299999999 807.92661 573.5027299999999 L 702.42661 573.5027299999999 L 702.42661 757.5027299999999 L 691.42661 757.5027299999999 L 691.42661 509.29655 C 691.4266431368293 506.2590073074146 693.8890673072339 503.7966099998192 696.92661 503.79661 Z" stroke-linecap="round" />
</g>
<g transform="matrix(1 0 0 1 328.44 810.86)"  >
<path style="stroke: none; stroke-width: 1; stroke-dasharray: none; stroke-linecap: butt; stroke-dashoffset: 0; stroke-linejoin: miter; stroke-miterlimit: 4; fill: rgb(63,61,86); fill-rule: nonzero; opacity: 1;" vector-effect="non-scaling-stroke"  transform=" translate(-393.21, -739.36)" d="M 403.33253 756.2532 L 383.50032000000004 756.80079 C 380.48783542760174 756.955703739042 377.50745789088955 756.120189890989 375.01450000000006 754.42189 C 372.8608300000001 752.81989 371.87291000000005 750.6542599999999 372.3060300000001 748.47938 L 376.2086100000001 728.86653 C 376.94407000000007 725.16653 381.4781900000001 722.36944 386.9885500000001 722.21723 L 397.94101000000006 721.9147899999999 C 403.45135000000005 721.7626399999999 408.1328900000001 724.3052399999999 409.07151000000005 727.9590699999999 L 414.05051000000003 747.3266799999999 C 414.60299000000003 749.4743299999999 413.73602000000005 751.6912199999999 411.67409000000004 753.4096099999999 C 409.2786686436048 755.2428952722756 406.3489590454756 756.2416164846321 403.33253 756.2532 Z" stroke-linecap="round" />
</g>
<g transform="matrix(1 0 0 1 449.07 810.3)"  >
<path style="stroke: none; stroke-width: 1; stroke-dasharray: none; stroke-linecap: butt; stroke-dashoffset: 0; stroke-linejoin: miter; stroke-miterlimit: 4; fill: rgb(63,61,86); fill-rule: nonzero; opacity: 1;" vector-effect="non-scaling-stroke"  transform=" translate(-513.84, -738.8)" d="M 523.96291 755.69264 L 504.13075999999995 756.24027 C 501.1182742182561 756.3951815486896 498.13789635156746 755.5596640959455 495.64493999999996 753.86136 C 493.49132 752.25936 492.50334999999995 750.0937299999999 492.93645999999995 747.91885 L 496.83904999999993 728.306 C 497.5745099999999 724.606 502.10864999999995 721.8088600000001 507.6189799999999 721.6567 L 518.5714399999999 721.35426 C 524.0818399999999 721.2021299999999 528.7633199999999 723.7447099999999 529.7019399999999 727.3985399999999 L 534.68094 746.7661599999999 C 535.2334 748.9138499999999 534.36646 751.1306899999998 532.30453 752.8490799999998 C 529.9090934135565 754.6823761405892 526.979357868124 755.6810884779494 523.96291 755.69264 Z" stroke-linecap="round" />
</g>
<g transform="matrix(1 0 0 1 384.16 653.58)"  >
<path style="stroke: none; stroke-width: 1; stroke-dasharray: none; stroke-linecap: butt; stroke-dashoffset: 0; stroke-linejoin: miter; stroke-miterlimit: 4; fill: rgb(63,61,86); fill-rule: nonzero; opacity: 1;" vector-effect="non-scaling-stroke"  transform=" translate(-448.91, -582.1)" d="M 334.46727 589.18826 C 332.6006708527124 588.3839006757505 331.54442857330287 586.3898305755121 331.9276604895587 584.3937545254768 C 332.31089240581457 582.3976784754415 334.03050691970816 580.9365524572337 336.06227 580.8806500000001 L 561.53 574.65488 C 562.6779685392468 574.6229280904108 563.7916102360817 575.0483237904746 564.6259264605198 575.8374810176899 C 565.460242684958 576.6266382449053 565.946887443263 577.7149103661031 565.9788 578.86288 L 565.9788 578.86326 C 566.0419350567663 581.2528959395424 564.1590365137863 583.2427946372964 561.76956 583.3117 L 561.76911 583.31151 L 336.30134999999996 589.5372 C 335.6718300500912 589.5563929997685 335.04576126669764 589.4372812700308 334.46727 589.18826 Z" stroke-linecap="round" />
</g>
<g transform="matrix(1 -0.03 0.03 1 323.69 695.73)"  >
<rect style="stroke: none; stroke-width: 1; stroke-dasharray: none; stroke-linecap: butt; stroke-dashoffset: 0; stroke-linejoin: miter; stroke-miterlimit: 4; fill: rgb(230,230,230); fill-rule: nonzero; opacity: 1;" vector-effect="non-scaling-stroke"  x="-32.235" y="-108.84" rx="0" ry="0" width="64.47" height="217.68" />
</g>
<g transform="matrix(1 0 0 1 349.71 678.05)"  >
<polygon style="stroke: none; stroke-width: 1; stroke-dasharray: none; stroke-linecap: butt; stroke-dashoffset: 0; stroke-linejoin: miter; stroke-miterlimit: 4; fill: rgb(204,204,204); fill-rule: nonzero; opacity: 1;" vector-effect="non-scaling-stroke"  points="4.84,-95.92 -7.55,-62.17 -7.54,91.59 7.55,95.92 4.84,-95.92 " />
</g>
<g transform="matrix(1 0 0 1 321.35 551.21)"  >
<path style="stroke: none; stroke-width: 1; stroke-dasharray: none; stroke-linecap: butt; stroke-dashoffset: 0; stroke-linejoin: miter; stroke-miterlimit: 4; fill: rgb(63,61,86); fill-rule: nonzero; opacity: 1;" vector-effect="non-scaling-stroke"  transform=" translate(-386.11, -479.73)" d="M 385.11593 457.6809 C 373.0585 458.02334 363.85904 478.89003 364.08026 487.03276 L 364.48726 501.77437 L 408.14639 500.56879999999995 L 407.73939 485.82719 C 407.51085 477.68465 397.17388 457.35745 385.11593 457.6809 Z" stroke-linecap="round" />
</g>
<g transform="matrix(1 0 0 1 288.73 657.44)"  >
<path style="stroke: none; stroke-width: 1; stroke-dasharray: none; stroke-linecap: butt; stroke-dashoffset: 0; stroke-linejoin: miter; stroke-miterlimit: 4; fill: rgb(63,61,86); fill-rule: nonzero; opacity: 1;" vector-effect="non-scaling-stroke"  transform=" translate(-353.5, -585.95)" d="M 354.06345 606.43974 C 349.3729050440195 606.5638563674619 345.46697141588896 602.8678560139127 345.33203 598.1776100000001 L 344.66954 574.1867400000001 C 344.53996571341844 569.494106267604 348.2390562676039 565.5849342865816 352.93169 565.45536 C 357.624323732396 565.3257857134186 361.53349571341846 569.024876267604 361.66307 573.7175100000001 L 362.32555 597.70838 C 362.44964396762924 602.3988946882995 358.75366499281216 606.3047930654141 354.06345 606.43974 Z" stroke-linecap="round" />
</g>
<g transform="matrix(1 0 0 1 309.47 695.5)"  >
<polyline style="stroke: none; stroke-width: 1; stroke-dasharray: none; stroke-linecap: butt; stroke-dashoffset: 0; stroke-linejoin: miter; stroke-miterlimit: 4; fill: rgb(63,61,86); fill-rule: nonzero; opacity: 1;" vector-effect="non-scaling-stroke"  points="-3.81,-107.17 -4.12,-123.03 0.04,-123.13 0.35,-107.33 4.12,123.02 -0.04,123.13 " />
</g>
<g transform="matrix(1 0 0 1 320.48 594.99)"  >
<path style="stroke: none; stroke-width: 1; stroke-dasharray: none; stroke-linecap: butt; stroke-dashoffset: 0; stroke-linejoin: miter; stroke-miterlimit: 4; fill: rgb(230,230,230); fill-rule: nonzero; opacity: 1;" vector-effect="non-scaling-stroke"  transform=" translate(-385.25, -523.5)" d="M 425.06668 553.91991 L 350.32812 555.98371 C 343.18960000000004 547.2785299999999 342.5412 510.19111 357.43901 503.13259999999997 L 363.28131 493.21236 L 408.32389 491.01354 L 413.58804 501.45860999999996 C 420.99871 507.7645 424.81991 544.62037 425.06668 553.91991 Z" stroke-linecap="round" />
</g>
<g transform="matrix(1 0 0 1 322.42 597.15)"  >
<path style="stroke: none; stroke-width: 1; stroke-dasharray: none; stroke-linecap: butt; stroke-dashoffset: 0; stroke-linejoin: miter; stroke-miterlimit: 4; fill: rgb(108,99,255); fill-rule: nonzero; opacity: 1;" vector-effect="non-scaling-stroke"  transform=" translate(-387.19, -525.66)" d="M 396.9363 536.13244 L 378.03623000000005 536.65436 C 374.38910000000004 536.75507 371.28830000000005 532.02336 371.12495000000007 526.10802 C 370.9616000000001 520.19268 373.79661000000004 515.29702 377.4437500000001 515.19634 L 396.3438100000001 514.6744199999999 C 399.99095000000005 514.5737099999999 403.09175000000005 519.3054199999999 403.2551000000001 525.2207599999999 C 403.4184500000001 531.1360999999999 400.58344 536.03173 396.9363 536.13244 Z" stroke-linecap="round" />
</g>
<g transform="matrix(1 0 0 1 272.69 759.39)"  >
<polygon style="stroke: none; stroke-width: 1; stroke-dasharray: none; stroke-linecap: butt; stroke-dashoffset: 0; stroke-linejoin: miter; stroke-miterlimit: 4; fill: rgb(230,230,230); fill-rule: nonzero; opacity: 1;" vector-effect="non-scaling-stroke"  points="22.88,-44.79 -16.08,-17.26 -22.88,44.79 22.57,29.6 22.88,-44.79 " />
</g>
<g transform="matrix(1 -0.03 0.03 1 448.1 693.06)"  >
<rect style="stroke: none; stroke-width: 1; stroke-dasharray: none; stroke-linecap: butt; stroke-dashoffset: 0; stroke-linejoin: miter; stroke-miterlimit: 4; fill: rgb(230,230,230); fill-rule: nonzero; opacity: 1;" vector-effect="non-scaling-stroke"  x="-32.235" y="-108.84" rx="0" ry="0" width="64.47" height="217.68" />
</g>
<g transform="matrix(1 0 0 1 423.04 678.77)"  >
<polygon style="stroke: none; stroke-width: 1; stroke-dasharray: none; stroke-linecap: butt; stroke-dashoffset: 0; stroke-linejoin: miter; stroke-miterlimit: 4; fill: rgb(204,204,204); fill-rule: nonzero; opacity: 1;" vector-effect="non-scaling-stroke"  points="-8.62,-95.92 4.64,-62.51 8.62,91.2 -6.36,95.92 -8.62,-95.92 " />
</g>
<g transform="matrix(1 0 0 1 509.56 511.63)"  >
<ellipse style="stroke: none; stroke-width: 1; stroke-dasharray: none; stroke-linecap: butt; stroke-dashoffset: 0; stroke-linejoin: miter; stroke-miterlimit: 4; fill: rgb(230,230,230); fill-rule: nonzero; opacity: 1;" vector-effect="non-scaling-stroke"  cx="0" cy="0" rx="8.44737" ry="11.32747" />
</g>
<g transform="matrix(1 0 0 1 444.51 548.58)"  >
<path style="stroke: none; stroke-width: 1; stroke-dasharray: none; stroke-linecap: butt; stroke-dashoffset: 0; stroke-linejoin: miter; stroke-miterlimit: 4; fill: rgb(63,61,86); fill-rule: nonzero; opacity: 1;" vector-effect="non-scaling-stroke"  transform=" translate(-509.26, -477.1)" d="M 508.26852 455.05074 C 496.21108000000004 455.39319 487.01163 476.25988 487.23285000000004 484.4026 L 487.63985 499.14421 L 531.29899 497.93863999999996 L 530.892 483.197 C 530.66338 475.05448 520.32648 454.72726 508.26852 455.05074 Z" stroke-linecap="round" />
</g>
<g transform="matrix(1 0 0 1 459.8 700.46)"  >
<polyline style="stroke: none; stroke-width: 1; stroke-dasharray: none; stroke-linecap: butt; stroke-dashoffset: 0; stroke-linejoin: miter; stroke-miterlimit: 4; fill: rgb(63,61,86); fill-rule: nonzero; opacity: 1;" vector-effect="non-scaling-stroke"  points="-3.81,-107.17 -4.12,-123.03 0.04,-123.13 0.35,-107.33 4.12,123.02 -0.04,123.13 " />
</g>
<g transform="matrix(1 0 0 1 447.33 592.36)"  >
<path style="stroke: none; stroke-width: 1; stroke-dasharray: none; stroke-linecap: butt; stroke-dashoffset: 0; stroke-linejoin: miter; stroke-miterlimit: 4; fill: rgb(230,230,230); fill-rule: nonzero; opacity: 1;" vector-effect="non-scaling-stroke"  transform=" translate(-512.09, -520.87)" d="M 548.21927 551.28975 L 473.48077000000006 553.35355 C 472.1776300000001 545.47672 473.8633700000001 508.72063 480.59166000000005 500.50244000000004 L 486.43396000000007 490.58220000000006 L 531.4765500000001 488.38338000000005 L 536.7406900000001 498.82845000000003 C 550.0394 499.91218 554.69093 536.03162 548.21927 551.28975 Z" stroke-linecap="round" />
</g>
<g transform="matrix(1 0 0 1 445.62 596.18)"  >
<path style="stroke: none; stroke-width: 1; stroke-dasharray: none; stroke-linecap: butt; stroke-dashoffset: 0; stroke-linejoin: miter; stroke-miterlimit: 4; fill: rgb(108,99,255); fill-rule: nonzero; opacity: 1;" vector-effect="non-scaling-stroke"  transform=" translate(-510.39, -524.69)" d="M 520.18032 536.813 L 501.28025 537.33492 C 497.63311000000004 537.4356300000001 494.51182 531.9612 494.32325000000003 525.13323 C 494.13468000000006 518.3052600000001 496.94925 512.66688 500.59625000000005 512.56615 L 519.4963200000001 512.04423 C 523.1434600000001 511.94352 526.26475 517.41795 526.4533200000001 524.24592 C 526.6418900000001 531.0738899999999 523.8274 536.71222 520.18032 536.813 Z" stroke-linecap="round" />
</g>
<g transform="matrix(1 0 0 1 499.78 744.49)"  >
<polygon style="stroke: none; stroke-width: 1; stroke-dasharray: none; stroke-linecap: butt; stroke-dashoffset: 0; stroke-linejoin: miter; stroke-miterlimit: 4; fill: rgb(230,230,230); fill-rule: nonzero; opacity: 1;" vector-effect="non-scaling-stroke"  points="-19.28,-45.78 18.39,-16.51 22.35,45.78 -22.35,28.54 -19.28,-45.78 " />
</g>
<g transform="matrix(1 0 0 1 341.55 383.98)"  >
<path style="stroke: none; stroke-width: 1; stroke-dasharray: none; stroke-linecap: butt; stroke-dashoffset: 0; stroke-linejoin: miter; stroke-miterlimit: 4; fill: rgb(242,242,242); fill-rule: nonzero; opacity: 1;" vector-effect="non-scaling-stroke"  transform=" translate(-406.31, -312.49)" d="M 534.75357 338.67976 C 494.34087 338.67976 447.89644 293.83356 406.80463999999995 315.14117999999996 C 282.38963999999993 379.65484999999995 299.51606999999996 271.70124 263.7726399999999 231.55230999999998 L 264.9461199999999 229.19863999999998 C 292.0055999999999 332.41684999999995 316.4891199999999 496.89104 407.3449199999999 312.4034 C 430.1041399999999 266.18953999999997 504.80003999999985 337.62334 548.7682299999999 335.51604 L 548.8445299999998 338.34513999999996 Q 541.8795 338.68114 534.75357 338.67976 Z" stroke-linecap="round" />
</g>
<g transform="matrix(1 0 0 1 431.92 472.59)"  >
<path style="stroke: none; stroke-width: 1; stroke-dasharray: none; stroke-linecap: butt; stroke-dashoffset: 0; stroke-linejoin: miter; stroke-miterlimit: 4; fill: rgb(242,242,242); fill-rule: nonzero; opacity: 1;" vector-effect="non-scaling-stroke"  transform=" translate(-496.68, -401.1)" d="M 631.75057 345.0259 C 599.53506 369.42562999999996 535.43475 361.71738 515.5426600000001 403.51277 C 455.31466000000006 530.0580199999999 403.78866000000005 433.66105 351.05489000000006 423.23639 L 350.56928000000005 420.65162999999995 C 403.35936000000004 425.03006999999997 459.98375000000004 418.23652999999996 514.3203900000001 401.00411999999994 C 563.4247300000001 385.43280999999996 607.2349100000001 362.26860999999997 641.0123900000001 334.04232999999994 L 642.7813300000001 336.2515199999999 Q 637.43193 340.72462 631.75057 345.0259 Z" stroke-linecap="round" />
</g>
<g transform="matrix(1 0 0 1 216.56 399.63)"  >
<ellipse style="stroke: none; stroke-width: 1; stroke-dasharray: none; stroke-linecap: butt; stroke-dashoffset: 0; stroke-linejoin: miter; stroke-miterlimit: 4; fill: rgb(230,230,230); fill-rule: nonzero; opacity: 1;" vector-effect="non-scaling-stroke"  cx="0" cy="0" rx="8.44737" ry="11.32747" />
</g>
<g transform="matrix(1 0 0 1 478.56 307.63)"  >
<ellipse style="stroke: none; stroke-width: 1; stroke-dasharray: none; stroke-linecap: butt; stroke-dashoffset: 0; stroke-linejoin: miter; stroke-miterlimit: 4; fill: rgb(230,230,230); fill-rule: nonzero; opacity: 1;" vector-effect="non-scaling-stroke"  cx="0" cy="0" rx="8.44737" ry="11.32747" />
</g>
<g transform="matrix(1 0 0 1 291.95 453.67)"  >
<path style="stroke: none; stroke-width: 1; stroke-dasharray: none; stroke-linecap: butt; stroke-dashoffset: 0; stroke-linejoin: miter; stroke-miterlimit: 4; fill: rgb(230,230,230); fill-rule: nonzero; opacity: 1;" vector-effect="non-scaling-stroke"  transform=" translate(-356.72, -382.18)" d="M 358.656 385.18822 C 354.794 387.7614 350.84131 381.63698 354.77752 379.17802 C 358.63937 376.605 362.59207 382.72945 358.656 385.18822 Z" stroke-linecap="round" />
</g>
<g transform="matrix(1 0 0 1 434.95 252.67)"  >
<path style="stroke: none; stroke-width: 1; stroke-dasharray: none; stroke-linecap: butt; stroke-dashoffset: 0; stroke-linejoin: miter; stroke-miterlimit: 4; fill: rgb(230,230,230); fill-rule: nonzero; opacity: 1;" vector-effect="non-scaling-stroke"  transform=" translate(-499.72, -181.18)" d="M 501.656 184.18823 C 497.794 186.76142000000002 493.84131 180.63699 497.77752 178.17805 C 501.63937 175.605 505.59207 181.72944 501.656 184.18823 Z" stroke-linecap="round" />
</g>
<g transform="matrix(1 0 0 1 517.72 374.95)"  >
<polygon style="stroke: none; stroke-width: 1; stroke-dasharray: none; stroke-linecap: butt; stroke-dashoffset: 0; stroke-linejoin: miter; stroke-miterlimit: 4; fill: rgb(230,230,230); fill-rule: nonzero; opacity: 1;" vector-effect="non-scaling-stroke"  points="3.46,-0.1 1,-0.64 1.54,-3.1 -0.1,-3.46 -0.64,-1 -3.1,-1.54 -3.46,0.1 -1,0.64 -1.54,3.1 0.1,3.46 0.64,1 3.1,1.54 3.46,-0.1 " />
</g>
<g transform="matrix(1 0 0 1 295.95 281.78)"  >
<circle style="stroke: none; stroke-width: 1; stroke-dasharray: none; stroke-linecap: butt; stroke-dashoffset: 0; stroke-linejoin: miter; stroke-miterlimit: 4; fill: rgb(255,101,132); fill-rule: nonzero; opacity: 1;" vector-effect="non-scaling-stroke"  cx="0" cy="0" r="10.70233" />
</g>
<g transform="matrix(1 0 0 1 375.24 290.28)"  >
<path style="stroke: none; stroke-width: 1; stroke-dasharray: none; stroke-linecap: butt; stroke-dashoffset: 0; stroke-linejoin: miter; stroke-miterlimit: 4; fill: rgb(63,61,86); fill-rule: nonzero; opacity: 1;" vector-effect="non-scaling-stroke"  transform=" translate(-440, -218.79)" d="M 439.00118 196.74951 C 426.94374 197.09196 417.74428 217.95865999999998 417.96549999999996 226.10138999999998 L 418.37249999999995 240.843 L 462.03162999999995 239.63744 L 461.62451999999996 224.89582 C 461.396 216.75324 451.05913 196.42606 439.00118 196.74951 Z" stroke-linecap="round" />
</g>
<g transform="matrix(1 0 0 1 390.11 809.57)"  >
<path style="stroke: none; stroke-width: 1; stroke-dasharray: none; stroke-linecap: butt; stroke-dashoffset: 0; stroke-linejoin: miter; stroke-miterlimit: 4; fill: rgb(63,61,86); fill-rule: nonzero; opacity: 1;" vector-effect="non-scaling-stroke"  transform=" translate(-454.88, -738.08)" d="M 464.99807 754.96821 L 445.16591999999997 755.51584 C 442.1534343832505 755.6707500679988 439.1730569803184 754.8352327452641 436.6801 753.13693 C 434.52642 751.53493 433.53844999999995 749.36928 433.97162 747.19442 L 437.87420999999995 727.58157 C 438.6097199999999 723.88157 443.14381 721.0844300000001 448.6542099999999 720.9323 L 459.6066699999999 720.62986 C 465.11705999999987 720.47773 469.7985499999999 723.0203 470.7371699999999 726.67413 L 475.7160699999999 746.04165 C 476.2685299999999 748.18934 475.4015899999999 750.40618 473.33965999999987 752.12457 C 470.944242089997 753.9578892070077 468.0145169454515 754.9566296881434 464.99807 754.96821 Z" stroke-linecap="round" />
</g>
<g transform="matrix(1 -0.03 0.03 1 382.92 582.9)"  >
<rect style="stroke: none; stroke-width: 1; stroke-dasharray: none; stroke-linecap: butt; stroke-dashoffset: 0; stroke-linejoin: miter; stroke-miterlimit: 4; fill: rgb(230,230,230); fill-rule: nonzero; opacity: 1;" vector-effect="non-scaling-stroke"  x="-32.235" y="-220.01" rx="0" ry="0" width="64.47" height="440.02" />
</g>
<g transform="matrix(1 0 0 1 387.1 682.17)"  >
<polyline style="stroke: none; stroke-width: 1; stroke-dasharray: none; stroke-linecap: butt; stroke-dashoffset: 0; stroke-linejoin: miter; stroke-miterlimit: 4; fill: rgb(63,61,86); fill-rule: nonzero; opacity: 1;" vector-effect="non-scaling-stroke"  points="-3.81,-107.17 -4.12,-123.03 0.04,-123.13 0.35,-107.33 4.12,123.02 -0.04,123.13 " />
</g>
<g transform="matrix(1 0 0 1 377.87 367.31)"  >
<path style="stroke: none; stroke-width: 1; stroke-dasharray: none; stroke-linecap: butt; stroke-dashoffset: 0; stroke-linejoin: miter; stroke-miterlimit: 4; fill: rgb(230,230,230); fill-rule: nonzero; opacity: 1;" vector-effect="non-scaling-stroke"  transform=" translate(-442.63, -295.82)" d="M 486.53068 330.85065 L 399.20479 333.262 C 397.68225 324.05858 399.65179 281.112 407.51326 271.50976 L 409.66759 260.04776000000004 L 469.96413 258.38271000000003 L 473.11891 269.55377000000004 C 481.77751 276.9218 486.2423 319.98486 486.53068 330.85065 Z" stroke-linecap="round" />
</g>
<g transform="matrix(1 0 0 1 375.92 314.68)"  >
<path style="stroke: none; stroke-width: 1; stroke-dasharray: none; stroke-linecap: butt; stroke-dashoffset: 0; stroke-linejoin: miter; stroke-miterlimit: 4; fill: rgb(230,230,230); fill-rule: nonzero; opacity: 1;" vector-effect="non-scaling-stroke"  transform=" translate(-440.68, -243.19)" d="M 471.87015 259.73526 L 409.64753 261.45346 C 407.3509 261.51681 405.45443 260.31101 405.41174 258.76007 C 405.406018925353 258.5366619801336 405.4387108108914 258.3139309631722 405.50839 258.10159 L 415.17333 228.32640999999998 C 415.58718000000005 227.05140999999998 417.23471 226.11504 419.15751 226.06194999999997 L 460.42195 224.92255999999998 C 462.34475 224.86947999999998 464.04141 225.71347999999998 464.52502 226.96370999999996 L 475.81836999999996 256.16016999999994 C 476.39599 257.6534699999999 475.06197999999995 259.20739999999995 472.83872999999994 259.63098999999994 C 472.5191783034339 259.6915953129249 472.1952790798408 259.7264638545467 471.87015 259.73526 Z" stroke-linecap="round" />
</g>
<g transform="matrix(1 0 0 1 381.35 525.82)"  >
<path style="stroke: none; stroke-width: 1; stroke-dasharray: none; stroke-linecap: butt; stroke-dashoffset: 0; stroke-linejoin: miter; stroke-miterlimit: 4; fill: rgb(63,61,86); fill-rule: nonzero; opacity: 1;" vector-effect="non-scaling-stroke"  transform=" translate(-446.11, -454.33)" d="M 415.78556 501.48553 C 415.22384483788375 501.2449673611747 414.6930786367534 500.93776436408814 414.20468 500.57052999999996 C 412.78616651655796 499.57532744529595 411.9078226166152 497.97988945739127 411.82555 496.24904 L 409.5647 414.37145999999996 C 409.4716 410.98206999999996 412.79015000000004 408.13084999999995 416.96237 408.01545999999996 L 472.66556 406.47704999999996 C 476.83862000000005 406.361 480.30847 409.02592999999996 480.40265000000005 412.41526 L 482.6633800000001 494.29326 C 482.67691693911337 496.0259338859983 481.88799775319217 497.6673781588018 480.5265500000001 498.7392 C 479.0384475203901 499.9511076983656 477.18424751624815 500.6241745818184 475.2652500000001 500.64903 L 419.5629100000001 502.1867 C 418.2678097047847 502.2301279184786 416.97879805891944 501.99085533433066 415.78556 501.48553 Z" stroke-linecap="round" />
</g>
<g transform="matrix(1 0 0 1 376.97 316.85)"  >
<path style="stroke: none; stroke-width: 1; stroke-dasharray: none; stroke-linecap: butt; stroke-dashoffset: 0; stroke-linejoin: miter; stroke-miterlimit: 4; fill: rgb(108,99,255); fill-rule: nonzero; opacity: 1;" vector-effect="non-scaling-stroke"  transform=" translate(-441.73, -245.36)" d="M 451.438 254.46588 L 432.53792999999996 254.9878 C 428.89079 255.08849999999998 425.80682999999993 250.96791 425.66425999999996 245.80357999999998 C 425.52169 240.63924999999998 428.3735199999999 236.35474 432.02065999999996 236.25402999999997 L 450.92072999999993 235.73210999999998 C 454.5678699999999 235.63139999999999 457.65182999999996 239.75199999999998 457.79439999999994 244.91633 C 457.9369699999999 250.08066 455.08518 254.36517 451.438 254.46588 Z" stroke-linecap="round" />
</g>
<g transform="matrix(1 0 0 1 803.16 725.78)"  >
<path style="stroke: none; stroke-width: 1; stroke-dasharray: none; stroke-linecap: butt; stroke-dashoffset: 0; stroke-linejoin: miter; stroke-miterlimit: 4; fill: rgb(230,230,230); fill-rule: nonzero; opacity: 1;" vector-effect="non-scaling-stroke"  transform=" translate(-867.93, -654.3)" d="M 898.19394 740.08733 L 876.19394 740.08733 L 876.19394 580.21 C 894.59623 578.89048 908.42661 573.2552800000001 908.42661 566.50278 C 908.42661 558.7707800000001 890.29416 552.50278 867.92661 552.50278 C 845.5590599999999 552.50278 827.42661 558.7707800000001 827.42661 566.50278 C 827.42661 573.32029 841.52652 578.9968600000001 860.19394 580.24485 L 860.19394 740.08733 L 838.19394 740.08733 C 833.7756620013537 740.08733 830.19394 743.6690520013536 830.19394 748.08733 C 830.19394 752.5056079986463 833.7756620013537 756.08733 838.19394 756.08733 L 898.19394 756.08733 C 902.6122179986463 756.08733 906.19394 752.5056079986463 906.19394 748.08733 C 906.19394 743.6690520013536 902.6122179986463 740.08733 898.19394 740.08733 Z" stroke-linecap="round" />
</g>
<g transform="matrix(1 0 0 1 768.75 720.41)"  >
<polygon style="stroke: none; stroke-width: 1; stroke-dasharray: none; stroke-linecap: butt; stroke-dashoffset: 0; stroke-linejoin: miter; stroke-miterlimit: 4; fill: rgb(160,97,106); fill-rule: nonzero; opacity: 1;" vector-effect="non-scaling-stroke"  points="20.52,10 13.29,17.87 -20.52,-6.25 -9.86,-17.87 20.52,10 " />
</g>
<g transform="matrix(1 0 0 1 784.76 743.42)"  >
<path style="stroke: none; stroke-width: 1; stroke-dasharray: none; stroke-linecap: butt; stroke-dashoffset: 0; stroke-linejoin: miter; stroke-miterlimit: 4; fill: rgb(47,46,65); fill-rule: nonzero; opacity: 1;" vector-effect="non-scaling-stroke"  transform=" translate(-849.52, -671.93)" d="M 835.5538 679.70713 C 835.6972849599248 683.2643026396723 837.2585937088535 686.6160537804178 839.88939 689.01459 L 840.20753 689.31059 L 849.68524 678.98206 L 863.50591 663.9184300000001 L 853.30314 654.5517600000001 L 851.46089 656.5641700000001 L 851.26852 656.7713600000001 L 842.08682 661.11436 L 840.14097 662.0391900000001 L 839.80802 662.1945300000001 L 839.0755600000001 670.0593000000001 L 839.0755600000001 670.0667000000001 C 836.6573762450902 672.6785103615091 835.3886211814465 676.1515875667139 835.5538 679.70713 Z" stroke-linecap="round" />
</g>
<g transform="matrix(1 0 0 1 813.17 790.8)"  >
<polygon style="stroke: none; stroke-width: 1; stroke-dasharray: none; stroke-linecap: butt; stroke-dashoffset: 0; stroke-linejoin: miter; stroke-miterlimit: 4; fill: rgb(254,228,196); fill-rule: nonzero; opacity: 1;" vector-effect="non-scaling-stroke"  points="13.54,18.17 3.31,21.28 -13.54,-16.69 1.56,-21.28 13.54,18.17 " />
</g>
<g transform="matrix(1 0 0 1 815.48 816.33)"  >
<path style="stroke: none; stroke-width: 1; stroke-dasharray: none; stroke-linecap: butt; stroke-dashoffset: 0; stroke-linejoin: miter; stroke-miterlimit: 4; fill: rgb(47,46,65); fill-rule: nonzero; opacity: 1;" vector-effect="non-scaling-stroke"  transform=" translate(-880.25, -744.85)" d="M 863.98679 756.2017 L 864.1126 756.62343 L 897.08833 746.60568 L 893.0634600000001 733.35468 L 890.4591700000001 734.14634 L 890.1854200000001 734.22776 L 877.9258600000002 733.10315 L 877.5633300000002 733.07357 L 872.9243300000002 739.47337 C 865.8374686441477 741.6254374916415 861.8363096817889 749.1143447243372 863.9867500000001 756.2017000000001 Z" stroke-linecap="round" />
</g>
<g transform="matrix(0.88 -0.48 0.48 0.88 777.85 729.98)"  >
<polygon style="stroke: none; stroke-width: 1; stroke-dasharray: none; stroke-linecap: butt; stroke-dashoffset: 0; stroke-linejoin: miter; stroke-miterlimit: 4; fill: rgb(254,228,196); fill-rule: nonzero; opacity: 1;" vector-effect="non-scaling-stroke"  points="13.54,18.17 3.31,21.28 -13.54,-16.69 1.56,-21.28 13.54,18.17 " />
</g>
<g transform="matrix(1 0 0 1 762.94 696.15)"  >
<path style="stroke: none; stroke-width: 1; stroke-dasharray: none; stroke-linecap: butt; stroke-dashoffset: 0; stroke-linejoin: miter; stroke-miterlimit: 4; fill: rgb(47,46,65); fill-rule: nonzero; opacity: 1;" vector-effect="non-scaling-stroke"  transform=" translate(-827.71, -626.08)" d="M 807.14234 538.68707 C 807.14234 538.68707 741.84834 601.72907 783.12611 621.2426399999999 L 795.88428 621.2426399999999 C 798.6574943842936 612.2283430591428 802.920177178926 603.7418885468566 808.4956 596.1351199999999 C 809.70098 594.5576899999999 814.2166599999999 594.87812 815.4707099999999 593.3408 C 823.12771 583.9540599999999 831.4289399999999 575.89256 837.16207 576.21264 L 835.79056 619.77064 L 833.571 635.30785 C 832.40554 643.3397100000001 865.2981 713.4693100000001 865.2981 713.4693100000001 L 885.9723 705.344 C 885.9723 705.344 864.43237 647.5818700000001 864.18005 639.25463 L 881.44161 547.693 Z" stroke-linecap="round" />
</g>
<g transform="matrix(1 0 0 1 779.58 549.94)"  >
<path style="stroke: none; stroke-width: 1; stroke-dasharray: none; stroke-linecap: butt; stroke-dashoffset: 0; stroke-linejoin: miter; stroke-miterlimit: 4; fill: rgb(108,99,255); fill-rule: nonzero; opacity: 1;" vector-effect="non-scaling-stroke"  transform=" translate(-844.34, -478.45)" d="M 801.69759 541.79634 C 802.030464607335 542.2711065102571 802.4652642938614 542.6654530399264 802.97018 542.95053 C 803.8021204442923 543.4208800575951 804.7037400901505 543.7555619182749 805.64108 543.94197 C 820.34218 547.27872 868.36682 554.19648 880.83352 550.89667 C 882.36505 550.49716 883.3638500000001 549.93486 883.68939 549.19499 C 884.73262 546.85704 884.59939 536.97982 883.98539 525.0532 C 883.8743900000001 522.8187999999999 881.4106300000001 520.39947 881.2627 518.06147 C 881.1591099999999 516.308 883.37129 514.6581199999999 883.25293 512.87502 C 882.43906 500.81522999999993 881.38846 488.52608999999995 880.68558 480.75750999999997 C 880.24168 475.76342999999997 879.93831 472.64122 879.93831 472.64122 L 887.52192 424.82376 L 887.1668 424.23924 L 886.76729 424.03951 L 862.31473 411.93529 L 860.98298 408.53193 C 860.1934428137677 406.52693746247303 858.2621231668817 405.20518800440175 856.1073 405.19513 L 840.00043 405.12857 C 838.3050040041437 405.11922850025417 836.709469067586 405.92938391661414 835.71663 407.30373000000003 L 831.35141 413.34846000000005 L 802.49669 431.84507 L 802.6076899999999 432.18538 L 816.1471999999999 473.38844 L 816.2137699999998 476.59944 L 816.2137699999998 476.60684000000003 L 816.7168699999999 502.42809000000005 L 815.3185599999998 505.92768000000007 L 816.8944699999998 511.66904000000005 C 816.8944699999998 511.66904000000005 816.1693799999998 518.3795700000001 812.2850899999999 523.3663 C 808.7633199999999 527.8943 804.2797499999998 532.6146 802.2525199999999 536.4471 L 802.2525199999999 536.4544999999999 C 801.12792 538.57055 800.75058 540.4054 801.69759 541.79634 Z" stroke-linecap="round" />
</g>
<g transform="matrix(1 0 0 1 742.25 700.49)"  >
<path style="stroke: none; stroke-width: 1; stroke-dasharray: none; stroke-linecap: butt; stroke-dashoffset: 0; stroke-linejoin: miter; stroke-miterlimit: 4; fill: rgb(47,46,65); fill-rule: nonzero; opacity: 1;" vector-effect="non-scaling-stroke"  transform=" translate(-807.01, -629)" d="M 779.991 617.49777 L 783.481 621.90769 C 783.481 621.90769 815.57883 644.36379 816.681 646.46241 L 821.7537000000001 651.26249 L 834.0277000000001 638.1421899999999 L 827.6447000000001 630.14181 C 822.5366582191011 623.7393982785513 815.9370288327498 618.6867596079013 808.42358 615.4262299999999 L 808.42358 615.4262299999999 L 798.64127 606.7473499999999 Z" stroke-linecap="round" />
</g>
<g transform="matrix(1 0 0 1 833.79 593.71)"  >
<path style="stroke: none; stroke-width: 1; stroke-dasharray: none; stroke-linecap: butt; stroke-dashoffset: 0; stroke-linejoin: miter; stroke-miterlimit: 4; fill: rgb(254,228,196); fill-rule: nonzero; opacity: 1;" vector-effect="non-scaling-stroke"  transform=" translate(-898.55, -522.22)" d="M 895.61028 556.69023 L 889.76515 500.11255000000006 L 888.22236 476.827 L 904.58273 473.86872 C 904.58273 473.86872 903.9344699999999 490.51857 906.07773 499.91259 C 908.19273 509.18249000000003 906.35831 555.44804 906.22762 556.68515 C 908.6873401626242 558.8846837211269 909.5349252925628 562.373790085725 908.3584208337575 565.4566473849209 C 907.181916374952 568.5395046841167 904.2252945820344 570.5768194240665 900.9255719564879 570.5783888987506 C 897.6258493309415 570.5799583734348 894.6672908261104 568.5454571201877 893.4878542498653 565.4637203969406 C 892.3084176736203 562.3819836736936 893.1526833150949 558.8920725999558 895.61031 556.6902 Z" stroke-linecap="round" />
</g>
<g transform="matrix(1 0 0 1 829.7 541.61)"  >
<path style="stroke: none; stroke-width: 1; stroke-dasharray: none; stroke-linecap: butt; stroke-dashoffset: 0; stroke-linejoin: miter; stroke-miterlimit: 4; fill: rgb(108,99,255); fill-rule: nonzero; opacity: 1;" vector-effect="non-scaling-stroke"  transform=" translate(-894.46, -470.11)" d="M 876.128 471.0061 L 880.68555 480.75751 L 882.27628 484.15351000000004 L 886.5600800000001 506.58617000000004 L 888.6983000000001 508.85756000000003 L 890.5405500000002 516.18964 L 891.4061800000002 516.0120800000001 L 907.0173500000002 512.7788800000001 L 911.5674900000002 511.8392300000001 C 913.6817031501658 508.31653937137713 913.026170666675 503.79267605457215 909.999 501.015 C 909.68827 500.73384999999996 909.42934 500.4601 909.4367 500.20117 C 909.6957 484.5974 908.74123 456.10517 900.1218299999999 444.37837 C 897.3843199999999 440.65683 895.7418299999999 436.9501 893.35205 434.36057 C 893.3446399999999 434.35321 893.3446399999999 434.34581 893.33728 434.34581 L 887.5219099999999 424.82374999999996 L 887.1667899999999 424.23922999999996 L 886.7672799999999 424.0395 Z" stroke-linecap="round" />
</g>
<g transform="matrix(1 0 0 1 784.55 451.18)" id="af7fa85c-211d-4c02-a612-cf38cfa53f1c"  >
<circle style="stroke: none; stroke-width: 1; stroke-dasharray: none; stroke-linecap: butt; stroke-dashoffset: 0; stroke-linejoin: miter; stroke-miterlimit: 4; fill: rgb(254,228,196); fill-rule: nonzero; opacity: 1;" vector-effect="non-scaling-stroke"  cx="0" cy="0" r="21.43064" />
</g>
<g transform="matrix(1 0 0 1 786.86 440.04)"  >
<path style="stroke: none; stroke-width: 1; stroke-dasharray: none; stroke-linecap: butt; stroke-dashoffset: 0; stroke-linejoin: miter; stroke-miterlimit: 4; fill: rgb(47,46,65); fill-rule: nonzero; opacity: 1;" vector-effect="non-scaling-stroke"  transform=" translate(-849.21, -371.8)" d="M 874.76076 375.07894 C 875.38842 371.47754 875.87764 366.80888 874.07956 362.65854 C 872.56022 359.16572 868.7594300000001 355.89092 864.53468 356.33263 C 864.9432103685693 354.7248002521679 864.4124554255161 353.02388192391317 863.1620399999999 351.93371 C 861.786274179369 350.8536073387736 860.1832592338995 350.09991814173617 858.4738399999999 349.72946 C 854.5028399999999 348.56228000000004 850.3894499999999 347.35225 846.1422699999998 347.32977 C 841.3755699999998 347.30387 837.1519699999998 348.93683 834.5621199999998 351.816 L 834.4987199999998 351.90912 L 833.7222699999999 353.76277 C 833.5120576291619 354.2659690711401 833.0924540302952 354.6521849824554 832.5735899999999 354.82005 C 832.0533228406046 354.99161739551994 831.4836184526785 354.92186575753067 831.0201099999998 354.62985 C 830.5090587094419 354.31541487368855 829.869830540991 354.2946767904799 829.3394732935116 354.57532614516555 C 828.8091160460322 354.85597549985124 828.4667133856782 355.3961635574931 828.4392399999998 355.99557 L 828.3979299999999 356.78657 L 827.2859299999999 356.3433 C 826.7180533762826 356.11381547621505 826.0704513054063 356.2096313438405 825.5933564702633 356.5937244636712 C 825.1162616351204 356.9778175835019 824.8843951677486 357.5900324673462 824.9873499999999 358.19381 L 825.1353499999999 359.13480999999996 C 824.6522205337147 359.0471479348903 824.1542033574545 359.1594204149166 823.75542 359.44589999999994 C 823.1756297468546 359.87193942867674 822.93745577909 360.62372312722283 823.1661499999999 361.30589999999995 C 824.0290289711511 363.7674809109094 825.5030871248152 365.9695184646078 827.4500299999999 367.70541999999995 C 828.3238634222897 368.4951866226802 829.3025045490883 369.1605864036115 830.3582599999999 369.68278999999995 Q 830.6876899999999 369.84889999999996 831.0431299999999 369.99738999999994 C 839.5836455086929 373.6592517668622 848.7215686666099 375.72919371403856 858.00641 376.10516999999993 C 857.1283734735567 377.7800284238661 856.5610832138113 379.6001256129603 856.3320299999999 381.47725999999994 C 856.0735716168864 383.64830748358025 857.0421499555105 385.78327914180835 858.8460299999999 387.01869999999997 C 859.2300687924458 387.23819101823136 859.6330156044927 387.42280357675406 860.0500299999999 387.57032 C 860.4485514637098 387.7173162822123 860.8346367918998 387.8960497052301 861.2045699999999 388.10479999999995 C 862.3083507098743 388.7723406303585 862.9703618684631 389.97964977252974 862.9397384512147 391.2692251115411 C 862.9091150339663 392.55880045055255 862.1905427073872 393.7333250140849 861.0563199999999 394.34772 C 861.0563199999999 394.34772 862.6512499999999 396.29487 862.90649 396.26178 C 863.922343828755 396.0312721929075 864.8403843544332 395.4881209476466 865.53149 394.70871999999997 C 870.17275 390.2022 873.27793 383.60175 874.76076 375.07894 Z" stroke-linecap="round" />
</g>
<g transform="matrix(1 0 0 1 902.74 788.66)"  >
<path style="stroke: none; stroke-width: 1; stroke-dasharray: none; stroke-linecap: butt; stroke-dashoffset: 0; stroke-linejoin: miter; stroke-miterlimit: 4; fill: rgb(242,242,242); fill-rule: nonzero; opacity: 1;" vector-effect="non-scaling-stroke"  transform=" translate(-967.5, -717.17)" d="M 968.58324 706.35184 L 969.51467 685.4086000000001 C 979.2245045676968 680.2184296463442 990.0545172667737 677.4769368462565 1001.0643200000001 677.42217 C 985.91156 689.8106700000001 987.8052 713.6914400000001 977.5319900000001 730.35104 C 970.9608946384078 740.8265529413059 959.9822584253087 747.7450122298532 947.69671 749.15248 L 935.01634 756.91626 C 931.4950274505545 737.2855606915818 936.74613276446 717.0973337560114 949.38621 701.6703299999999 C 952.9324197351627 697.428643329327 956.9986727945769 693.6504162063105 961.489 690.42482 C 964.526 698.4327 968.58324 706.35184 968.58324 706.35184 Z" stroke-linecap="round" />
</g>
<g transform="matrix(1 0 0 1 540 829.4)"  >
<path style="stroke: none; stroke-width: 1; stroke-dasharray: none; stroke-linecap: butt; stroke-dashoffset: 0; stroke-linejoin: miter; stroke-miterlimit: 4; fill: rgb(204,204,204); fill-rule: nonzero; opacity: 1;" vector-effect="non-scaling-stroke"  transform=" translate(-604.76, -757.91)" d="M 1032.34212 757.91264 C 1032.343352017016 758.3249681521457 1032.1800957030268 758.720762594496 1031.8885277992972 759.0123173585329 C 1031.5969598955676 759.3038721225697 1031.2011580962042 759.4671105992635 1030.78883 759.46586 L 178.73865 759.46586 C 177.88083028086783 759.46586 177.18543 758.7704597191322 177.18543 757.91264 C 177.18543 757.0548202808678 177.88083028086783 756.35942 178.73865 756.35942 L 1030.78883 756.35942 C 1031.201153197538 756.3581854866072 1031.5969456403275 756.5214291297535 1031.8885100458367 756.8129803957278 C 1032.180074451346 757.104531661702 1032.3433359313663 757.5003167472455 1032.34212 757.91264 Z" stroke-linecap="round" />
</g>
<g transform="matrix(1 0 0 1 478.35 652.13)"  >
<path style="stroke: none; stroke-width: 1; stroke-dasharray: none; stroke-linecap: butt; stroke-dashoffset: 0; stroke-linejoin: miter; stroke-miterlimit: 4; fill: rgb(63,61,86); fill-rule: nonzero; opacity: 1;" vector-effect="non-scaling-stroke"  transform=" translate(-543.12, -580.64)" d="M 543.68349 601.12509 C 538.9929433799985 601.2492007498198 535.087011448659 597.5531975284426 534.95207 592.86295 L 534.28958 568.87208 C 534.1661048391173 564.1835144286105 537.8636293156021 560.2809943303347 542.5520337446395 560.1515449488883 C 547.2404381736769 560.0220955674419 551.1476666081726 563.7146443257276 551.28309 568.40288 L 551.9455800000001 592.39375 C 552.0696461171733 597.084246794224 548.3736857346249 600.9901213037681 543.68349 601.12509 Z" stroke-linecap="round" />
</g>
<g transform="matrix(1 0 0 1 540 614.91)"  >
<path style="stroke: none; stroke-width: 1; stroke-dasharray: none; stroke-linecap: butt; stroke-dashoffset: 0; stroke-linejoin: miter; stroke-miterlimit: 4; fill: rgb(204,204,204); fill-rule: nonzero; opacity: 1;" vector-effect="non-scaling-stroke"  transform=" translate(-604.47, -562.66)" d="M 918.53992 688.80705 Q 899.1717500000001 688.80705 876.08338 687.34319 C 796.46961 682.2875200000001 693.34558 664.71037 585.7073800000001 637.851 C 478.06968000000006 610.99162 378.77720000000005 578.05705 306.1219300000001 545.11662 C 270.72935000000007 529.06975 243.56578000000007 513.8802900000001 225.3865800000001 499.96916 C 206.1395100000001 485.24216 197.7205800000001 472.40515999999997 200.3626500000001 461.81633 C 205.51065000000008 441.18742 251.09365000000008 436.67424 288.4266500000001 436.52092 L 288.43934000000013 439.52092 C 237.17128000000014 439.73136999999997 206.92567000000014 447.90764 203.27382000000011 462.54292 C 198.62196000000012 481.18305999999995 236.5604400000001 510.28364999999997 307.3607300000001 542.38423 C 379.8563400000001 575.25236 478.9662000000001 608.12346 586.4339400000001 634.94084 C 693.9012300000002 661.75725 796.8353100000002 679.30412 876.2737900000002 684.34904 C 953.8524000000002 689.2767799999999 1001.0169500000002 681.41154 1005.6683200000002 662.7709199999999 C 1009.5301300000002 647.29436 984.0701700000002 624.4955299999999 933.9788600000002 598.57268 L 935.3577700000002 595.90861 C 971.7547700000002 614.74455 1014.0032800000001 641.76018 1008.5794500000002 663.49748 C 1005.9369300000002 674.08635 992.4740400000002 681.46233 968.5643700000002 685.42033 C 954.93494 687.67619 938.19422 688.80705 918.53992 688.80705 Z" stroke-linecap="round" />
</g>
<g transform="matrix(1 0 0 1 377.12 599.91)"  >
<path style="stroke: none; stroke-width: 1; stroke-dasharray: none; stroke-linecap: butt; stroke-dashoffset: 0; stroke-linejoin: miter; stroke-miterlimit: 4; fill: rgb(204,204,204); fill-rule: nonzero; opacity: 1;" vector-effect="non-scaling-stroke"  transform=" translate(-441.89, -528.43)" d="M 233.244 669.1541 C 222.99791 669.1541 216.33678 666.6082 213.38853 661.5466799999999 C 207.57453 651.56621 217.31187 634.05351 242.32945 609.4958899999999 L 244.43101000000001 611.6365199999999 C 221.19224000000003 634.4490199999999 211.08824 651.6375199999999 215.98033 660.0369099999999 C 219.07603 665.3494099999999 228.28892000000002 667.25371 242.62877 665.5408199999999 C 256.86412 663.8416 275.72935 658.77617 298.70054 650.4861299999999 C 345.99154 633.4187499999999 405.32309999999995 604.6296799999999 465.76554 569.4216799999999 C 526.20597 534.2146799999999 580.51602 496.8054699999999 618.69229 464.08667999999994 C 626.02481 457.80102999999997 632.6795999999999 451.75415999999996 638.47159 446.11547999999993 C 646.0746118121452 438.8937934924111 653.0887707850934 431.0764648479936 659.44718 422.73803999999996 C 668.01018 411.11103999999995 670.9003 402.15698999999995 667.80509 396.84351 C 662.6351699999999 387.969 640.91739 388.80350999999996 606.64884 399.19651 L 605.7787199999999 396.32541 C 642.5448299999999 385.17649 664.28604 384.84202 670.3973699999999 395.33371999999997 C 674.1947399999999 401.85227 671.3231499999999 411.67112 661.8631899999999 424.51730999999995 C 655.4074461578169 432.98783683149315 648.2851701211641 440.9289621194539 640.56436 448.26487 C 634.72745 453.94797 628.0253 460.03733 620.6444399999999 466.36447999999996 C 582.3348699999999 499.19796999999994 527.86759 536.71848 467.2752999999999 572.0133999999999 C 406.6815499999999 607.3102799999999 347.1751999999999 636.1813999999999 299.7191499999999 653.30832 C 276.5340899999999 661.67551 257.4457099999999 666.79368 242.9842899999999 668.51926 C 239.7528580865149 668.9224667869084 236.50043083352602 669.1344492758577 233.244 669.1541 Z" stroke-linecap="round" />
</g>
<g transform="matrix(1 0 0 1 683.28 625.26)"  >
<path style="stroke: none; stroke-width: 1; stroke-dasharray: none; stroke-linecap: butt; stroke-dashoffset: 0; stroke-linejoin: miter; stroke-miterlimit: 4; fill: rgb(230,230,230); fill-rule: nonzero; opacity: 1;" vector-effect="non-scaling-stroke"  transform=" translate(-748.04, -553.77)" d="M 780.78711 545.98171 C 773.3728199999999 545.83401 733.54736 544.69096 727.01657 544.97205 C 726.64713 543.67876 714.26672 559.5446 713.96564 559.6429499999999 C 713.5583544209804 560.0728925724588 713.3874063038498 560.6750197302049 713.5080145439042 561.2548350550462 C 713.6286227839586 561.8346503798875 714.0255004890188 562.3186632516915 714.57045 562.55053 C 715.29822 562.99266 779.5021 561.80493 780.2800100000001 561.9599 C 780.9667291476663 561.9490417406532 781.5863800122006 561.5453460723854 781.8737900000001 560.92157 L 782.3029200000001 559.96041 C 782.34751 558.31609 782.88584 549.91241 782.4025800000001 548.47558 C 782.6435006021692 547.9277104343455 782.5926415368555 547.2953957135655 782.2672509295581 546.7930763428434 C 781.9418603222608 546.2907569721211 781.3855971042835 545.9858311074178 780.78711 545.98171 Z" stroke-linecap="round" />
</g>
<g transform="matrix(1 0 0 1 683.12 632.82)"  >
<path style="stroke: none; stroke-width: 1; stroke-dasharray: none; stroke-linecap: butt; stroke-dashoffset: 0; stroke-linejoin: miter; stroke-miterlimit: 4; fill: rgb(0,0,0); fill-rule: nonzero; opacity: 0.17;" vector-effect="non-scaling-stroke"  transform=" translate(-747.89, -561.32)" d="M 782.30283 559.95889 C 781.92602 560.86438 781.4440099999999 562.00204 780.27992 561.96027 L 715.2483299999999 562.69007 C 714.6228230487643 562.6830295264484 714.0461549654435 562.3506616667316 713.726504069465 561.812951876034 C 713.4068531734865 561.2752420853366 713.3903870491761 560.6098524707168 713.6830499999999 560.05699 Z" stroke-linecap="round" />
</g>
<g transform="matrix(1 0 0 1 643.99 572.85)"  >
<path style="stroke: none; stroke-width: 1; stroke-dasharray: none; stroke-linecap: butt; stroke-dashoffset: 0; stroke-linejoin: miter; stroke-miterlimit: 4; fill: rgb(230,230,230); fill-rule: nonzero; opacity: 1;" vector-effect="non-scaling-stroke"  transform=" translate(-708.75, -501.37)" d="M 727.32042 544.77735 C 726.62042 543.56683 709.23425 457.53903999999994 707.78314 456.81965999999994 L 695.91283 442.29860999999994 L 694.8518799999999 441.5008199999999 C 693.37654 440.69035999999994 689.8375299999999 441.23833999999994 690.1562499999999 443.4916799999999 L 690.1562499999999 443.4916799999999 C 692.9449499999998 456.8617499999999 710.8818499999999 533.0101599999999 711.2749199999998 544.8820699999999 L 713.4340599999998 560.0063599999999 C 713.5119254715929 560.5268064243547 713.8063223941 560.9900247985729 714.2444685298284 561.2814960253455 C 714.6826146655569 561.5729672521182 715.2236147087701 561.6654862417271 715.7337199999998 561.5361799999998 C 716.9929183534783 561.4004471790275 718.0868900554731 560.6099782105059 718.6111099999998 559.4570699999998 C 718.773 558.92333 728.13321 545.08723 727.32042 544.77735 Z" stroke-linecap="round" />
</g>
<g transform="matrix(1 0 0 1 639.62 572.87)"  >
<path style="stroke: none; stroke-width: 1; stroke-dasharray: none; stroke-linecap: butt; stroke-dashoffset: 0; stroke-linejoin: miter; stroke-miterlimit: 4; fill: rgb(0,0,0); fill-rule: nonzero; opacity: 0.17;" vector-effect="non-scaling-stroke"  transform=" translate(-704.38, -501.38)" d="M 695.91 442.29922 L 718.61339 559.46015 C 717.85414 561.38187 714.30139 562.72815 713.4739099999999 560.20732 C 713.45945 560.20385 690.1827699999999 443.56381 690.1590899999999 443.49408999999997 C 689.911 440.687 694.54951 440.59792 695.91 442.29922 Z" stroke-linecap="round" />
</g>
<g transform="matrix(1 0 0 1 644.07 559.97)"  >
<polygon style="stroke: none; stroke-width: 1; stroke-dasharray: none; stroke-linecap: butt; stroke-dashoffset: 0; stroke-linejoin: miter; stroke-miterlimit: 4; fill: rgb(108,99,255); fill-rule: nonzero; opacity: 1;" vector-effect="non-scaling-stroke"  points="-12.24,-41.39 -0.71,-25.32 12.24,36.14 6.22,41.39 -12.24,-41.39 " />
</g>
<g transform="matrix(1 0 0 1 710.61 622.01)"  >
<path style="stroke: none; stroke-width: 1; stroke-dasharray: none; stroke-linecap: butt; stroke-dashoffset: 0; stroke-linejoin: miter; stroke-miterlimit: 4; fill: rgb(47,46,65); fill-rule: nonzero; opacity: 1;" vector-effect="non-scaling-stroke"  transform=" translate(-775.37, -550.53)" d="M 773.34421 554.26935 L 776.53421 554.39935 C 776.5840914192221 553.4650693466833 776.7383851846749 552.5393067539662 776.9942100000001 551.63935 C 777.4742100000001 549.3593500000001 777.90421 546.64935 775.91421 546.65935 C 774.56421 546.52935 774.1042100000001 548.2393500000001 773.8642100000001 550.0993500000001 C 773.8023050497467 551.5009885407155 773.6284175355457 552.8954326449806 773.34421 554.26935 Z" stroke-linecap="round" />
</g>
<g transform="matrix(1 0 0 1 691.92 619.48)"  >
<path style="stroke: none; stroke-width: 1; stroke-dasharray: none; stroke-linecap: butt; stroke-dashoffset: 0; stroke-linejoin: miter; stroke-miterlimit: 4; fill: rgb(47,46,65); fill-rule: nonzero; opacity: 1;" vector-effect="non-scaling-stroke"  transform=" translate(-756.68, -548)" d="M 755.04423 549.97937 L 757.19423 550.0593200000001 L 758.2342299999999 550.09932 C 758.2142299999999 548.95932 758.7442299999999 546.60932 757.4542299999999 546.02932 C 757.2490123723936 545.941091949035 757.0275955220077 545.8968085789578 756.80423 545.89932 C 755.5942299999999 545.8293199999999 755.2342299999999 546.74932 755.1241699999999 547.80932 C 755.05423 548.44932 755.08417 549.12932 755.06417 549.65932 C 755.06418 549.76935 755.05424 549.87933 755.04423 549.97937 Z" stroke-linecap="round" />
</g>
<g transform="matrix(1 0 0 1 685.55 619.23)"  >
<path style="stroke: none; stroke-width: 1; stroke-dasharray: none; stroke-linecap: butt; stroke-dashoffset: 0; stroke-linejoin: miter; stroke-miterlimit: 4; fill: rgb(47,46,65); fill-rule: nonzero; opacity: 1;" vector-effect="non-scaling-stroke"  transform=" translate(-750.32, -547.74)" d="M 748.67423 549.71936 L 750.8342299999999 549.8093600000001 L 751.8642299999999 549.84936 C 751.8442299999999 548.5393600000001 752.5342299999999 545.6793600000001 750.4341799999999 545.63936 C 748.4941799999998 545.52936 748.7441799999998 547.99936 748.6941799999998 549.39936 C 748.69419 549.50934 748.68418 549.61932 748.67423 549.71936 Z" stroke-linecap="round" />
</g>
<g transform="matrix(1 0 0 1 679.18 618.97)"  >
<path style="stroke: none; stroke-width: 1; stroke-dasharray: none; stroke-linecap: butt; stroke-dashoffset: 0; stroke-linejoin: miter; stroke-miterlimit: 4; fill: rgb(47,46,65); fill-rule: nonzero; opacity: 1;" vector-effect="non-scaling-stroke"  transform=" translate(-743.95, -547.49)" d="M 742.30424 549.46936 L 744.45424 549.5493600000001 L 745.49424 549.58936 C 745.47424 548.2893600000001 746.16424 545.4293600000001 744.06424 545.38936 C 742.12424 545.26936 742.37424 547.73936 742.32424 549.14936 C 742.32419 549.25934 742.31418 549.36932 742.30424 549.46936 Z" stroke-linecap="round" />
</g>
<g transform="matrix(1 0 0 1 672.81 618.72)"  >
<path style="stroke: none; stroke-width: 1; stroke-dasharray: none; stroke-linecap: butt; stroke-dashoffset: 0; stroke-linejoin: miter; stroke-miterlimit: 4; fill: rgb(47,46,65); fill-rule: nonzero; opacity: 1;" vector-effect="non-scaling-stroke"  transform=" translate(-737.58, -547.23)" d="M 735.93418 549.20935 L 738.0941799999999 549.29935 L 739.1241799999999 549.33935 C 739.1041799999999 548.02935 739.7941799999999 545.17935 737.69418 545.1293499999999 C 735.7541799999999 545.0193499999999 736.0041799999999 547.4893999999999 735.95418 548.8893499999999 C 735.9542 548.99933 735.94419 549.10937 735.93418 549.20935 Z" stroke-linecap="round" />
</g>
<g transform="matrix(1 0 0 1 666.44 618.46)"  >
<path style="stroke: none; stroke-width: 1; stroke-dasharray: none; stroke-linecap: butt; stroke-dashoffset: 0; stroke-linejoin: miter; stroke-miterlimit: 4; fill: rgb(47,46,65); fill-rule: nonzero; opacity: 1;" vector-effect="non-scaling-stroke"  transform=" translate(-731.2, -546.98)" d="M 729.56418 548.95935 L 731.7141799999999 549.03935 L 732.7541799999999 549.07935 C 732.7341799999999 547.8793499999999 733.3141799999999 545.3693499999999 731.7741799999999 544.93935 L 731.7641799999999 544.93935 C 731.6214177028862 544.8970919799523 731.4730444011668 544.8768592569905 731.3241799999998 544.87935 C 731.1426373743099 544.8631944975315 730.9596698876356 544.8801359314828 730.7841799999999 544.92935 L 730.7741799999999 544.92935 C 729.4341799999999 545.27935 729.6241799999999 547.37935 729.5841799999998 548.63935 C 729.5842 548.74933 729.57419 548.85937 729.56418 548.95935 Z" stroke-linecap="round" />
</g>
<g transform="matrix(1 0 0 1 703.79 617.79)"  >
<path style="stroke: none; stroke-width: 1; stroke-dasharray: none; stroke-linecap: butt; stroke-dashoffset: 0; stroke-linejoin: miter; stroke-miterlimit: 4; fill: rgb(47,46,65); fill-rule: nonzero; opacity: 1;" vector-effect="non-scaling-stroke"  transform=" translate(-768.55, -546.3)" d="M 766.91422 548.27936 L 770.10422 548.40936 C 770.10422 548.28936 770.10422 548.15936 770.11422 548.00936 C 770.1932257043937 547.2485877847813 770.2066084201263 546.4824273090968 770.15422 545.71936 C 770.04422 544.87936 769.68422 544.21936 768.67422 544.1993600000001 C 767.64422 544.1393600000001 767.2342199999999 544.7993600000001 767.07422 545.6493600000001 C 767.0370507931664 545.7939216065889 767.010315307923 545.9409667754277 766.9942199999999 546.0893600000002 L 766.9942199999999 546.0993600000002 C 766.91422 546.87933 766.96421 547.71936 766.91422 548.27936 Z" stroke-linecap="round" />
</g>
<g transform="matrix(1 0 0 1 697.41 617.53)"  >
<path style="stroke: none; stroke-width: 1; stroke-dasharray: none; stroke-linecap: butt; stroke-dashoffset: 0; stroke-linejoin: miter; stroke-miterlimit: 4; fill: rgb(47,46,65); fill-rule: nonzero; opacity: 1;" vector-effect="non-scaling-stroke"  transform=" translate(-762.18, -546.05)" d="M 760.54423 548.01935 L 763.73423 548.14935 C 763.801917904305 547.2911208915066 763.821948672338 546.4297978660899 763.79423 545.56935 C 763.7042299999999 544.68935 763.3542299999999 543.96935 762.30423 543.94935 C 761.2441699999999 543.8793499999999 760.8342299999999 544.59935 760.67423 545.48935 C 760.52421 546.34936 760.60422 547.37933 760.54423 548.01935 Z" stroke-linecap="round" />
</g>
<g transform="matrix(1 0 0 1 691.05 617.28)"  >
<path style="stroke: none; stroke-width: 1; stroke-dasharray: none; stroke-linecap: butt; stroke-dashoffset: 0; stroke-linejoin: miter; stroke-miterlimit: 4; fill: rgb(47,46,65); fill-rule: nonzero; opacity: 1;" vector-effect="non-scaling-stroke"  transform=" translate(-755.82, -545.79)" d="M 754.17423 547.76935 L 755.12423 547.80935 L 757.36423 547.89935 C 757.35423 547.41935 757.4442300000001 546.7193500000001 757.45423 546.02935 C 757.4627350682985 545.822472328136 757.4560504586508 545.6152494290592 757.4342300000001 545.40935 C 757.35423 544.4793500000001 757.0242300000001 543.70935 755.9342300000001 543.68935 C 754.8242300000001 543.62935 754.4342300000001 544.39935 754.2942800000001 545.33935 C 754.15421 546.17932 754.23423 547.14935 754.17423 547.76935 Z" stroke-linecap="round" />
</g>
<g transform="matrix(1 0 0 1 703.85 623.52)"  >
<path style="stroke: none; stroke-width: 1; stroke-dasharray: none; stroke-linecap: butt; stroke-dashoffset: 0; stroke-linejoin: miter; stroke-miterlimit: 4; fill: rgb(47,46,65); fill-rule: nonzero; opacity: 1;" vector-effect="non-scaling-stroke"  transform=" translate(-768.62, -552.04)" d="M 766.97422 554.01935 L 770.16422 554.13935 C 770.15422 552.8393500000001 770.83422 549.9793500000001 768.73422 549.93935 C 766.63419 549.80932 767.09421 552.70935 766.97422 554.01935 Z" stroke-linecap="round" />
</g>
<g transform="matrix(1 0 0 1 697.48 623.27)"  >
<path style="stroke: none; stroke-width: 1; stroke-dasharray: none; stroke-linecap: butt; stroke-dashoffset: 0; stroke-linejoin: miter; stroke-miterlimit: 4; fill: rgb(47,46,65); fill-rule: nonzero; opacity: 1;" vector-effect="non-scaling-stroke"  transform=" translate(-762.25, -551.78)" d="M 760.60422 553.75934 L 763.7942200000001 553.88934 C 763.7842200000001 552.57934 764.4642200000001 549.71934 762.3642200000002 549.6793399999999 C 760.2642 549.55932 760.72422 552.45935 760.60422 553.75934 Z" stroke-linecap="round" />
</g>
<g transform="matrix(1 0 0 1 691.11 623.01)"  >
<path style="stroke: none; stroke-width: 1; stroke-dasharray: none; stroke-linecap: butt; stroke-dashoffset: 0; stroke-linejoin: miter; stroke-miterlimit: 4; fill: rgb(47,46,65); fill-rule: nonzero; opacity: 1;" vector-effect="non-scaling-stroke"  transform=" translate(-755.88, -551.53)" d="M 754.23423 553.50934 L 757.4242300000001 553.62934 C 757.4142300000001 552.69934 757.7642300000001 550.97934 757.1942300000001 550.0593399999999 C 756.9408664054532 549.6442744330368 756.4797559963635 549.4021914682647 755.99423 549.4293399999999 C 755.6668610355947 549.3947328826564 755.3377304078205 549.4761307798478 755.0642300000001 549.6593399999999 C 754.04423 550.32934 754.3342 552.44934 754.23423 553.50934 Z" stroke-linecap="round" />
</g>
<g transform="matrix(1 0 0 1 684.74 622.76)"  >
<path style="stroke: none; stroke-width: 1; stroke-dasharray: none; stroke-linecap: butt; stroke-dashoffset: 0; stroke-linejoin: miter; stroke-miterlimit: 4; fill: rgb(47,46,65); fill-rule: nonzero; opacity: 1;" vector-effect="non-scaling-stroke"  transform=" translate(-749.51, -551.27)" d="M 747.86423 553.24933 L 751.0542300000001 553.37933 C 751.0442300000001 552.44933 751.3841800000001 550.73938 750.83423 549.8093299999999 C 750.581094532845 549.3877995121522 750.115127358566 549.141356790516 749.62423 549.1693799999999 C 749.2967656133756 549.1333614711934 748.96715695066 549.21487759208 748.6942300000001 549.39938 C 747.67423 550.08935 747.96421 552.19934 747.86423 553.24933 Z" stroke-linecap="round" />
</g>
<g transform="matrix(1 0 0 1 678.37 622.5)"  >
<path style="stroke: none; stroke-width: 1; stroke-dasharray: none; stroke-linecap: butt; stroke-dashoffset: 0; stroke-linejoin: miter; stroke-miterlimit: 4; fill: rgb(47,46,65); fill-rule: nonzero; opacity: 1;" vector-effect="non-scaling-stroke"  transform=" translate(-743.14, -551.02)" d="M 741.49418 552.99933 L 744.6841800000001 553.11933 C 744.6741800000001 552.18933 745.0241800000001 550.46933 744.4541800000001 549.54939 C 744.2008555385133 549.1342826891274 743.7397181348011 548.8921855521786 743.25418 548.91939 C 742.9268089687404 548.8847527744814 742.5976682025561 548.9661531790216 742.3241800000001 549.14939 C 741.30424 549.81933 741.59421 551.93933 741.49418 552.99933 Z" stroke-linecap="round" />
</g>
<g transform="matrix(1 0 0 1 672 622.25)"  >
<path style="stroke: none; stroke-width: 1; stroke-dasharray: none; stroke-linecap: butt; stroke-dashoffset: 0; stroke-linejoin: miter; stroke-miterlimit: 4; fill: rgb(47,46,65); fill-rule: nonzero; opacity: 1;" vector-effect="non-scaling-stroke"  transform=" translate(-736.77, -550.76)" d="M 735.12418 552.73938 L 738.3141800000001 552.86932 C 738.30424 551.9393200000001 738.6441800000001 550.22937 738.09418 549.29938 C 737.842850307996 548.8759423016211 737.3756393944963 548.6288224796047 736.88418 548.65938 C 736.5567150847619 548.623353526846 736.2271037153607 548.704870317128 735.9541800000001 548.8893800000001 C 734.93418 549.57934 735.22422 551.68933 735.12418 552.73938 Z" stroke-linecap="round" />
</g>
<g transform="matrix(1 0 0 1 665.63 621.99)"  >
<path style="stroke: none; stroke-width: 1; stroke-dasharray: none; stroke-linecap: butt; stroke-dashoffset: 0; stroke-linejoin: miter; stroke-miterlimit: 4; fill: rgb(47,46,65); fill-rule: nonzero; opacity: 1;" vector-effect="non-scaling-stroke"  transform=" translate(-730.4, -550.51)" d="M 728.75419 552.48938 L 731.94419 552.60938 C 731.9341900000001 551.6793299999999 732.2741900000001 549.96938 731.71419 549.0393799999999 C 731.4626300116973 548.6223954074716 731.0002714022002 548.3796571374855 730.51419 548.4093799999999 C 730.1868178468231 548.3747264230092 729.8576715734833 548.4561281895341 729.58419 548.63938 C 728.56418 549.31933 728.85422 551.42932 728.75419 552.48938 Z" stroke-linecap="round" />
</g>
<g transform="matrix(1 0 0 1 709.3 580.08)"  >
<path style="stroke: none; stroke-width: 1; stroke-dasharray: none; stroke-linecap: butt; stroke-dashoffset: 0; stroke-linejoin: miter; stroke-miterlimit: 4; fill: rgb(254,228,196); fill-rule: nonzero; opacity: 1;" vector-effect="non-scaling-stroke"  transform=" translate(-774.06, -508.59)" d="M 764.7803 543.24528 L 789.09336 491.82471999999996 L 798.286 470.375 L 783.8382499999999 462.14847 C 783.8382499999999 462.14847 778.9171399999999 478.06764 773.7741699999999 486.21571 C 768.6990799999999 494.25609000000003 755.0557999999999 538.5023 754.7679899999999 539.71254 C 751.7171565720673 540.9697563909465 749.7583444296716 543.9789633687234 749.8436018303832 547.277585631772 C 749.9288592310949 550.5762078948205 752.040506299825 553.4802082910707 755.1522118898158 554.5781454385774 C 758.2639174798068 555.6760825860841 761.7304054545023 554.7402766416761 763.8668466438313 552.2255606133355 C 766.0032878331605 549.7108445849948 766.3666472272996 546.1386965484502 764.78032 543.2453 Z" stroke-linecap="round" />
</g>
<g transform="matrix(1 0 0 1 729.99 537.84)"  >
<path style="stroke: none; stroke-width: 1; stroke-dasharray: none; stroke-linecap: butt; stroke-dashoffset: 0; stroke-linejoin: miter; stroke-miterlimit: 4; fill: rgb(108,99,255); fill-rule: nonzero; opacity: 1;" vector-effect="non-scaling-stroke"  transform=" translate(-794.75, -466.36)" d="M 764.63224 495.6377 L 783.01981 506.73063 L 787.18981 500.42789000000005 L 789.96719 498.99532000000005 L 801.46156 479.25807000000003 L 811.6240399999999 468.9044 L 825.0513 425.9851 L 807.58119 428.60609999999997 L 807.55836 428.61359 C 804.44602 430.26430999999997 801.66204 433.21545 797.84555 435.81633 C 785.8195 444.01184 775.45009 470.56821 770.51005 485.37502 C 770.42898 485.61802 770.09615 485.78745 769.7097 485.95294 C 765.9333820618568 487.56719500005147 763.8119681875847 491.6135407589051 764.6322 495.63767 Z" stroke-linecap="round" />
</g>
<g transform="matrix(0 0 0 0 0 0)"  >
<g style=""   >
</g>
</g>
<g transform="matrix(0 0 0 0 0 0)"  >
<g style=""   >
</g>
</g>
<g transform="matrix(NaN NaN NaN NaN 0 0)"  >
<g style=""   >
</g>
</g>
</svg>